<?xml version="1.0" encoding="utf-8"?>
<!-- Generator: Adobe Illustrator 18.1.0, SVG Export Plug-In . SVG Version: 6.00 Build 0)  -->
<svg version="1.1" id="Layer_1" xmlns="http://www.w3.org/2000/svg" xmlns:xlink="http://www.w3.org/1999/xlink" x="0px" y="0px"
	 viewBox="-174 116 960 560" enable-background="new -174 116 960 560" xml:space="preserve">
<text transform="matrix(1 0 0 1 530.9537 249.0342)" font-family="'MyriadPro-Regular'" font-size="10.5743">Tools</text>
<path fill="none" stroke="#000000" stroke-miterlimit="10" d="M496.4,177h95.2v89h-95.2L496.4,177L496.4,177z"/>
<text transform="matrix(1 0 0 1 530.9537 347.04)" font-family="'MyriadPro-Regular'" font-size="10.5743">Tools</text>
<path fill="none" stroke="#000000" stroke-miterlimit="10" d="M496.4,275h95.2v89h-95.2L496.4,275L496.4,275z"/>
<path fill="none" stroke="#000000" stroke-miterlimit="10" d="M43.9,130.1h465.3v112.8H43.9V130.1z"/>
<text transform="matrix(1 0 0 1 72.1408 228.7978)" font-family="'MyriadPro-Regular'" font-size="10.5743">Applications</text>
<text transform="matrix(1 0 0 1 72.1408 482.582)" font-family="'MyriadPro-Regular'" font-size="10.5743">Sources</text>
<rect x="43.9" y="383.9" fill="none" stroke="#000000" stroke-miterlimit="10" width="465.3" height="112.8"/>
<rect x="43.9" y="257" fill="none" stroke="#000000" stroke-miterlimit="10" width="465.3" height="112.8"/>
<circle cx="100.3" cy="172.4" r="28.2"/>
<circle cx="171.3" cy="172.4" r="28.2"/>
<circle cx="242.3" cy="172.4" r="28.2"/>
<circle cx="313.3" cy="172.4" r="28.2"/>
<circle cx="384.4" cy="172.4" r="28.2"/>
<circle cx="455.5" cy="172.4" r="28.2"/>
<circle cx="100.3" cy="433.2" r="28.2"/>
<circle cx="171.3" cy="433.2" r="28.2"/>
<circle cx="242.3" cy="433.2" r="28.2"/>
<circle cx="313.3" cy="433.2" r="28.2"/>
<circle cx="384.4" cy="433.2" r="28.2"/>
<circle cx="455.5" cy="433.2" r="28.2"/>
<path fill="none" stroke="#000000" stroke-miterlimit="10" d="M174,265.7h157.5v38.2H174V265.7z"/>
<path fill="none" stroke="#000000" stroke-miterlimit="10" d="M174,306.3h157.5v54.9H174V306.3z"/>
<circle cx="193.1" cy="306.3" r="9.5"/>
<circle cx="217.1" cy="306.3" r="9.5"/>
<circle cx="241.2" cy="306.3" r="9.5"/>
<circle cx="265.2" cy="306.3" r="9.5"/>
<circle cx="289.3" cy="306.3" r="9.5"/>
<circle cx="313.3" cy="306.3" r="9.5"/>
<path fill="none" stroke="#000000" stroke-miterlimit="10" d="M137.7,265.7h32.2v95.5h-32.2V265.7z"/>
<path fill="none" stroke="#000000" stroke-miterlimit="10" d="M335.7,265.7h32.2v95.5h-32.2V265.7z"/>
<path fill="none" stroke="#000000" stroke-miterlimit="10" d="M371.1,265.7h32.2v95.5h-32.2V265.7z"/>
</svg>
