<?xml version="1.0" encoding="utf-8"?>
<!-- Generator: Adobe Illustrator 16.0.0, SVG Export Plug-In . SVG Version: 6.00 Build 0)  -->
<!DOCTYPE svg PUBLIC "-//W3C//DTD SVG 1.1//EN" "http://www.w3.org/Graphics/SVG/1.1/DTD/svg11.dtd">
<svg version="1.1" id="Layer_1" xmlns="http://www.w3.org/2000/svg" xmlns:xlink="http://www.w3.org/1999/xlink" x="0px" y="0px"
	 width="342px" height="342px" viewBox="0 0 342 342" enable-background="new 0 0 342 342" xml:space="preserve">
<g id="data_access">
	<path fill="#69BE28" d="M37.914-70.214h200.752v51.041H37.914V-70.214z"/>
	<text transform="matrix(1 0 0 1 49.3452 -57.8257)" fill="#FFFFFF" font-family="'OpenSans'" font-size="6.4505">Data Access</text>
</g>
<g id="hdfs">
	<path fill="#B3E28A" d="M37.914,11.918h200.752v25.736H37.914V11.918z"/>
	<text transform="matrix(1 0 0 1 49.3452 31.2407)" fill="#69BE28" font-family="'MyriadPro-Regular'" font-size="6.4505">HDFS (Data Management)</text>
</g>
<g id="yarn">
	<path fill="#44697D" d="M37.914-16.107h200.752V8.982H37.914V-16.107z"/>
	<text transform="matrix(1 0 0 1 49.1948 3.8413)" fill="#FFFFFF" font-family="'MyriadPro-Regular'" font-size="6.4505">YARN: Data Operating System</text>
</g>
<g id="security">
	<text transform="matrix(1 0 0 1 251.4746 -58.9253)" fill="#69BE28" font-family="'MyriadPro-Regular'" font-size="4.7983">Security</text>
	<path fill="none" stroke="#69BE28" stroke-miterlimit="10" d="M245.057-69.825h43.269V37.741h-43.269V-69.825L245.057-69.825z"/>
</g>
<g id="governance_integration">
	<text transform="matrix(1 0 0 1 -4.4839 -58.9253)" fill="#69BE28" font-family="'MyriadPro-Regular'" font-size="4.7983">Governance</text>
	<text transform="matrix(1 0 0 1 -4.4839 -53.168)" fill="#69BE28" font-family="'MyriadPro-Regular'" font-size="4.7983">Integration</text>
	<path fill="none" stroke="#69BE28" stroke-miterlimit="10" d="M-10.839-69.825H32.3V37.741h-43.139V-69.825z"/>
</g>
<g id="operations">
	<text transform="matrix(1 0 0 1 300.1953 -58.9253)" fill="#69BE28" font-family="'MyriadPro-Regular'" font-size="4.7983">Operations</text>
	<path fill="none" stroke="#69BE28" stroke-miterlimit="10" d="M293.68-69.825h43.139V37.741H293.68V-69.825L293.68-69.825z"/>
</g>
<g id="element_1">
	<path fill="#FFFFFF" d="M74.705-36.705H53.33c-0.777,0-1.252,0.518-1.252,1.252v21.504c0,0.777,0.518,1.252,1.252,1.252h5.484
		l0.648,2.289c0,0.777,0.518,1.252,1.252,1.252h6.477c0.777,0,1.252-0.519,1.252-1.252l0.647-2.289h5.484
		c0.777,0,1.252-0.519,1.252-1.252v-21.634C76-36.187,75.482-36.705,74.705-36.705z"/>
	<text transform="matrix(1 0 0 1 56.9937 -22.1172)" fill="#B3E28A" font-family="'OpenSans-Semibold'" font-size="5.0682">Batch</text>
</g>
<g id="element_2">
	<path fill="#FFFFFF" d="M104.759-36.705H83.254c-0.777,0-1.252,0.518-1.252,1.252v21.504c0,0.777,0.518,1.252,1.252,1.252h5.484
		l0.647,2.289c0,0.777,0.518,1.252,1.252,1.252h6.477c0.777,0,1.252-0.519,1.252-1.252l0.648-2.289h5.484
		c0.777,0,1.252-0.519,1.252-1.252v-21.634C106.184-36.187,105.536-36.705,104.759-36.705z"/>
	<text transform="matrix(1 0 0 1 87.1289 -22.5771)" fill="#B3E28A" font-family="'OpenSans-Semibold'" font-size="5.0682">Script</text>
</g>
<g id="element_3">
	<path fill="#FFFFFF" d="M134.943-36.705h-21.505c-0.777,0-1.252,0.518-1.252,1.252v21.504c0,0.777,0.518,1.252,1.252,1.252h5.614
		l0.648,2.289c0,0.777,0.518,1.252,1.252,1.252h6.478c0.777,0,1.252-0.519,1.252-1.252l0.648-2.289h5.484
		c0.777,0,1.252-0.519,1.252-1.252v-21.634C136.195-36.187,135.72-36.705,134.943-36.705z"/>
	<text transform="matrix(1 0 0 1 119.5337 -22.3501)" fill="#B3E28A" font-family="'OpenSans-Semibold'" font-size="5.0682">SQL</text>
</g>
<g id="element_4">
	<path fill="#FFFFFF" d="M165.257-36.705h-21.504c-0.777,0-1.252,0.518-1.252,1.252v21.504c0,0.777,0.518,1.252,1.252,1.252h5.484
		l0.604,2.332c0,0.777,0.518,1.252,1.252,1.252h6.477c0.777,0,1.252-0.518,1.252-1.252l0.647-2.289h5.484
		c0.777,0,1.252-0.518,1.252-1.252v-21.634C166.379-36.187,165.861-36.705,165.257-36.705z"/>
	<text transform="matrix(1 0 0 1 146.562 -22.8076)" fill="#B3E28A" font-family="'OpenSans-Semibold'" font-size="5.0682">NoSQL</text>
</g>
<g id="element_5">
	<path fill="#FFFFFF" d="M195.527-36.705h-21.504c-0.777,0-1.253,0.518-1.253,1.252v21.504c0,0.777,0.519,1.252,1.253,1.252h5.483
		l0.647,2.289c0,0.777,0.519,1.252,1.252,1.252h6.479c0.776,0,1.252-0.519,1.252-1.252l0.647-2.289h5.483
		c0.777,0,1.253-0.519,1.253-1.252v-21.634C196.822-36.187,196.305-36.705,195.527-36.705z"/>
	<text transform="matrix(1 0 0 1 175.7031 -22.5771)" fill="#B3E28A" font-family="'OpenSans-Semibold'" font-size="5.0682">Stream</text>
</g>
<g id="element_6">
	<path fill="#FFFFFF" d="M224.545-36.705h-21.504c-0.777,0-1.252,0.518-1.252,1.252v21.504c0,0.777,0.518,1.252,1.252,1.252h5.484
		l0.647,2.289c0,0.777,0.519,1.252,1.252,1.252h6.478c0.777,0,1.252-0.519,1.252-1.252l0.648-2.289h5.483
		c0.777,0,1.253-0.519,1.253-1.252v-21.634C225.841-36.187,225.193-36.705,224.545-36.705z"/>
	<text transform="matrix(1 0 0 1 206.6602 -23.04)" fill="#B3E28A" font-family="'OpenSans-Semibold'" font-size="5.0682">Other</text>
</g>
</svg>
