<?xml version="1.0" encoding="utf-8"?>
<!-- Generator: Adobe Illustrator 18.1.0, SVG Export Plug-In . SVG Version: 6.00 Build 0)  -->
<svg version="1.1" id="Layer_1" xmlns="http://www.w3.org/2000/svg" xmlns:xlink="http://www.w3.org/1999/xlink" x="0px" y="0px"
	 viewBox="0 0 612 792" enable-background="new 0 0 612 792" xml:space="preserve">
<text transform="matrix(1 0 0 1 442.4988 150.2909)" font-family="'MyriadPro-Regular'" font-size="6.5501">Tools</text>
<path fill="none" stroke="#000000" stroke-miterlimit="10" d="M421.1,105.7h59v55.1h-59L421.1,105.7L421.1,105.7z"/>
<text transform="matrix(1 0 0 1 442.4988 210.9992)" font-family="'MyriadPro-Regular'" font-size="6.5501">Tools</text>
<path fill="none" stroke="#000000" stroke-miterlimit="10" d="M421.1,166.4h59v55.1h-59L421.1,166.4L421.1,166.4z"/>
<path fill="none" stroke="#000000" stroke-miterlimit="10" d="M140.8,76.6H429v69.9H140.8V76.6z"/>
<text transform="matrix(1 0 0 1 158.2947 137.7568)" font-family="'MyriadPro-Regular'" font-size="6.5501">Applications</text>
<text transform="matrix(1 0 0 1 158.2947 294.959)" font-family="'MyriadPro-Regular'" font-size="6.5501">Sources</text>
<rect x="140.8" y="233.8" fill="none" stroke="#000000" stroke-miterlimit="10" width="288.2" height="69.9"/>
<rect x="140.8" y="155.2" fill="none" stroke="#000000" stroke-miterlimit="10" width="288.2" height="69.9"/>
<circle cx="175.7" cy="102.8" r="17.5"/>
<circle cx="219.7" cy="102.8" r="17.5"/>
<circle cx="263.7" cy="102.8" r="17.5"/>
<circle cx="307.7" cy="102.8" r="17.5"/>
<circle cx="351.7" cy="102.8" r="17.5"/>
<circle cx="395.7" cy="102.8" r="17.5"/>
<circle cx="175.7" cy="264.4" r="17.5"/>
<circle cx="219.7" cy="264.4" r="17.5"/>
<circle cx="263.7" cy="264.4" r="17.5"/>
<circle cx="307.7" cy="264.4" r="17.5"/>
<circle cx="351.7" cy="264.4" r="17.5"/>
<circle cx="395.7" cy="264.4" r="17.5"/>
</svg>
