<?xml version="1.0" encoding="utf-8"?>
<!-- Generator: Adobe Illustrator 18.1.0, SVG Export Plug-In . SVG Version: 6.00 Build 0)  -->
<svg version="1.1" id="Layer_1" xmlns="http://www.w3.org/2000/svg" xmlns:xlink="http://www.w3.org/1999/xlink" x="0px" y="0px"
	 viewBox="0 0 612 792" enable-background="new 0 0 612 792" xml:space="preserve">
<g id="data_access">
	<path fill="#69BE28" d="M29.3-5.8h337.2v86H29.3V-5.8z"/>
	<text transform="matrix(1 0 0 1 48.6147 14.9819)" fill="#FFFFFF" font-family="'OpenSans'" font-size="10.8319">Data Access</text>
</g>
<g id="hdfs">
	<path fill="#B3E28A" d="M29.3,89.4h337.2v86H29.3V89.4z"/>
	<text transform="matrix(1 0 0 1 48.6147 164.5479)" fill="#69BE28" font-family="'MyriadPro-Regular'" font-size="10.8319">HDFS (Data Management)</text>
</g>
<g id="security">
	<text transform="matrix(1 0 0 1 388.0353 13.1352)" fill="#69BE28" font-family="'MyriadPro-Regular'" font-size="8.0574">Security</text>
	<path fill="none" stroke="#69BE28" stroke-miterlimit="10" d="M377.3-5.2h72.5v180.5h-72.5V-5.2L377.3-5.2z"/>
</g>
<g id="governance_integration">
	<text transform="matrix(1 0 0 1 -41.7783 13.1352)" fill="#69BE28" font-family="'MyriadPro-Regular'" font-size="8.0574">Governance</text>
	<text transform="matrix(1 0 0 1 -41.7783 22.8042)" fill="#69BE28" font-family="'MyriadPro-Regular'" font-size="8.0574">Integration</text>
	<path fill="none" stroke="#69BE28" stroke-miterlimit="10" d="M-52.5-5.2H20v180.5h-72.5V-5.2z"/>
</g>
<g id="operations">
	<text transform="matrix(1 0 0 1 469.8505 13.1352)" fill="#69BE28" font-family="'MyriadPro-Regular'" font-size="8.0574">Operations</text>
	<path fill="none" stroke="#69BE28" stroke-miterlimit="10" d="M459.1-5.2h72.5v180.5h-72.5V-5.2z"/>
</g>
<g id="element_1">
	<circle fill="#FFFFFF" stroke="#69BE28" stroke-miterlimit="10" cx="72.9" cy="76.5" r="20.2"/>
	<text transform="matrix(1 0 0 1 61.252 80.8995)" fill="#69BE28" font-family="'OpenSans-Semibold'" font-size="8.5107">Batch</text>
</g>
<g id="element_2">
	<circle fill="#FFFFFF" stroke="#69BE28" stroke-miterlimit="10" cx="123.7" cy="76.5" r="20.2"/>
	<text transform="matrix(1 0 0 1 112.0582 80.1259)" fill="#69BE28" font-family="'OpenSans-Semibold'" font-size="8.5107">Script</text>
</g>
<g id="element_3">
	<circle fill="#FFFFFF" stroke="#69BE28" stroke-miterlimit="10" cx="174.5" cy="76.5" r="20.2"/>
	<text transform="matrix(1 0 0 1 166.4756 80.5127)" fill="#69BE28" font-family="'OpenSans-Semibold'" font-size="8.5107">SQL</text>
</g>
<g id="element_4">
	<circle fill="#FFFFFF" stroke="#69BE28" stroke-miterlimit="10" cx="225.3" cy="76.5" r="20.2"/>
	<text transform="matrix(1 0 0 1 211.8661 79.7393)" fill="#69BE28" font-family="'OpenSans-Semibold'" font-size="8.5107">NoSQL</text>
</g>
<g id="element_5">
	<circle fill="#FFFFFF" stroke="#69BE28" stroke-miterlimit="10" cx="276.1" cy="76.5" r="20.2"/>
	<text transform="matrix(1 0 0 1 260.7998 80.1259)" fill="#69BE28" font-family="'OpenSans-Semibold'" font-size="8.5107">Stream</text>
</g>
<g id="element_6">
	<circle fill="#FFFFFF" stroke="#69BE28" stroke-miterlimit="10" cx="326.9" cy="76.5" r="20.2"/>
	<text transform="matrix(1 0 0 1 314.959 79.352)" fill="#69BE28" font-family="'OpenSans-Semibold'" font-size="8.5107">Other</text>
</g>
</svg>
