<?xml version="1.0" encoding="utf-8"?>
<!-- Generator: Adobe Illustrator 16.0.0, SVG Export Plug-In . SVG Version: 6.00 Build 0)  -->
<!DOCTYPE svg PUBLIC "-//W3C//DTD SVG 1.1//EN" "http://www.w3.org/Graphics/SVG/1.1/DTD/svg11.dtd">
<svg version="1.1" id="Layer_1" xmlns="http://www.w3.org/2000/svg" xmlns:xlink="http://www.w3.org/1999/xlink" x="0px" y="0px"
	 width="342px" height="342px" viewBox="0 0 342 342" enable-background="new 0 0 342 342" xml:space="preserve">
<g id="hdfs">
	<path fill="#B3E28A" d="M16.838,35.02h444.053v73.48H16.838V35.02z"/>
	<path fill="#FFFFFF" stroke="#C6C6C6" stroke-width="0.5" stroke-miterlimit="10" d="M453.5,99.445c0,1.687-0.967,3.054-2.16,3.054
		H25.16c-1.193,0-2.16-1.368-2.16-3.054V44.053c0-1.687,0.967-3.054,2.16-3.054h426.18c1.193,0,2.16,1.368,2.16,3.054V99.445z"/>
	<g>
		<g>
			<path fill="#FFFFFF" stroke="#DDDDDD" stroke-width="0.5" stroke-miterlimit="10" d="M61.804,59.662
				c0,0.812-0.65,1.469-1.452,1.469H31.452c-0.802,0-1.452-0.658-1.452-1.469V47.636c0-0.812,0.65-1.469,1.452-1.469h28.901
				c0.802,0,1.452,0.658,1.452,1.469V59.662z"/>
			
				<ellipse fill="#DDDDDD" stroke="#FFFFFF" stroke-width="0.5" stroke-miterlimit="10" cx="45.902" cy="53.649" rx="1.681" ry="1.702"/>
		</g>
		<g>
			<path fill="#FFFFFF" stroke="#DDDDDD" stroke-width="0.5" stroke-miterlimit="10" d="M96.586,59.662
				c0,0.812-0.65,1.469-1.452,1.469h-28.9c-0.802,0-1.452-0.658-1.452-1.469V47.636c0-0.812,0.649-1.469,1.452-1.469h28.9
				c0.802,0,1.452,0.658,1.452,1.469V59.662z"/>
			
				<ellipse fill="#DDDDDD" stroke="#FFFFFF" stroke-width="0.5" stroke-miterlimit="10" cx="80.684" cy="53.649" rx="1.681" ry="1.702"/>
		</g>
		<g>
			<path fill="#FFFFFF" stroke="#DDDDDD" stroke-width="0.5" stroke-miterlimit="10" d="M131.453,59.662
				c0,0.812-0.649,1.469-1.452,1.469h-28.9c-0.802,0-1.452-0.658-1.452-1.469V47.636c0-0.812,0.65-1.469,1.452-1.469h28.9
				c0.802,0,1.452,0.658,1.452,1.469V59.662z"/>
			
				<ellipse fill="#DDDDDD" stroke="#FFFFFF" stroke-width="0.5" stroke-miterlimit="10" cx="115.551" cy="53.649" rx="1.681" ry="1.702"/>
		</g>
		<g>
			<path fill="#FFFFFF" stroke="#DDDDDD" stroke-width="0.5" stroke-miterlimit="10" d="M166.232,59.662
				c0,0.812-0.65,1.469-1.452,1.469h-28.901c-0.802,0-1.452-0.658-1.452-1.469V47.636c0-0.812,0.65-1.469,1.452-1.469h28.901
				c0.802,0,1.452,0.658,1.452,1.469V59.662z"/>
			
				<ellipse fill="#DDDDDD" stroke="#FFFFFF" stroke-width="0.5" stroke-miterlimit="10" cx="150.33" cy="53.649" rx="1.681" ry="1.702"/>
		</g>
		<g>
			<path fill="#FFFFFF" stroke="#DDDDDD" stroke-width="0.5" stroke-miterlimit="10" d="M200.783,59.662
				c0,0.812-0.649,1.469-1.452,1.469h-28.9c-0.802,0-1.452-0.658-1.452-1.469V47.636c0-0.812,0.65-1.469,1.452-1.469h28.9
				c0.803,0,1.452,0.658,1.452,1.469V59.662z"/>
			
				<ellipse fill="#DDDDDD" stroke="#FFFFFF" stroke-width="0.5" stroke-miterlimit="10" cx="184.881" cy="53.649" rx="1.681" ry="1.702"/>
		</g>
		<g>
			<path fill="#FFFFFF" stroke="#DDDDDD" stroke-width="0.5" stroke-miterlimit="10" d="M235.615,59.662
				c0,0.812-0.649,1.469-1.452,1.469h-28.899c-0.802,0-1.451-0.658-1.451-1.469V47.636c0-0.812,0.649-1.469,1.451-1.469h28.899
				c0.803,0,1.452,0.658,1.452,1.469V59.662z"/>
			
				<ellipse fill="#DDDDDD" stroke="#FFFFFF" stroke-width="0.5" stroke-miterlimit="10" cx="219.713" cy="53.649" rx="1.681" ry="1.702"/>
		</g>
		<g>
			<path fill="#FFFFFF" stroke="#DDDDDD" stroke-width="0.5" stroke-miterlimit="10" d="M270.397,59.662
				c0,0.812-0.65,1.469-1.452,1.469h-28.9c-0.802,0-1.451-0.658-1.451-1.469V47.636c0-0.812,0.649-1.469,1.451-1.469h28.9
				c0.802,0,1.452,0.658,1.452,1.469V59.662z"/>
			
				<ellipse fill="#DDDDDD" stroke="#FFFFFF" stroke-width="0.5" stroke-miterlimit="10" cx="254.496" cy="53.649" rx="1.681" ry="1.702"/>
		</g>
		<g>
			<path fill="#FFFFFF" stroke="#DDDDDD" stroke-width="0.5" stroke-miterlimit="10" d="M305.265,59.662
				c0,0.812-0.65,1.469-1.452,1.469h-28.901c-0.802,0-1.451-0.658-1.451-1.469V47.636c0-0.812,0.649-1.469,1.451-1.469h28.901
				c0.802,0,1.452,0.658,1.452,1.469V59.662z"/>
			
				<ellipse fill="#DDDDDD" stroke="#FFFFFF" stroke-width="0.5" stroke-miterlimit="10" cx="289.362" cy="53.649" rx="1.681" ry="1.702"/>
		</g>
		<g>
			<path fill="#FFFFFF" stroke="#DDDDDD" stroke-width="0.5" stroke-miterlimit="10" d="M340.043,59.662
				c0,0.812-0.649,1.469-1.451,1.469H309.69c-0.802,0-1.452-0.658-1.452-1.469V47.636c0-0.812,0.65-1.469,1.452-1.469h28.901
				c0.802,0,1.451,0.658,1.451,1.469V59.662z"/>
			
				<ellipse fill="#DDDDDD" stroke="#FFFFFF" stroke-width="0.5" stroke-miterlimit="10" cx="324.141" cy="53.649" rx="1.682" ry="1.702"/>
		</g>
		<g>
			<path fill="#FFFFFF" stroke="#DDDDDD" stroke-width="0.5" stroke-miterlimit="10" d="M374.595,59.662
				c0,0.812-0.65,1.469-1.452,1.469h-28.9c-0.803,0-1.452-0.658-1.452-1.469V47.636c0-0.812,0.649-1.469,1.452-1.469h28.9
				c0.802,0,1.452,0.658,1.452,1.469V59.662z"/>
			
				<ellipse fill="#DDDDDD" stroke="#FFFFFF" stroke-width="0.5" stroke-miterlimit="10" cx="358.692" cy="53.649" rx="1.682" ry="1.702"/>
		</g>
		<g>
			<path fill="#FFFFFF" stroke="#DDDDDD" stroke-width="0.5" stroke-miterlimit="10" d="M409.889,59.662
				c0,0.812-0.649,1.469-1.451,1.469h-28.9c-0.803,0-1.452-0.658-1.452-1.469V47.636c0-0.812,0.649-1.469,1.452-1.469h28.9
				c0.802,0,1.451,0.658,1.451,1.469V59.662z"/>
			
				<ellipse fill="#DDDDDD" stroke="#FFFFFF" stroke-width="0.5" stroke-miterlimit="10" cx="393.987" cy="53.649" rx="1.682" ry="1.702"/>
		</g>
		<g>
			<path fill="#FFFFFF" stroke="#DDDDDD" stroke-width="0.5" stroke-miterlimit="10" d="M444.441,59.662
				c0,0.812-0.65,1.469-1.453,1.469h-28.9c-0.802,0-1.452-0.658-1.452-1.469V47.636c0-0.812,0.65-1.469,1.452-1.469h28.9
				c0.803,0,1.453,0.658,1.453,1.469V59.662z"/>
			
				<ellipse fill="#DDDDDD" stroke="#FFFFFF" stroke-width="0.5" stroke-miterlimit="10" cx="428.539" cy="53.649" rx="1.681" ry="1.702"/>
		</g>
	</g>
	<g>
		<g>
			<path fill="#FFFFFF" stroke="#DDDDDD" stroke-width="0.5" stroke-miterlimit="10" d="M61.804,96.162
				c0,0.812-0.65,1.469-1.452,1.469H31.452c-0.802,0-1.452-0.658-1.452-1.469V84.136c0-0.812,0.65-1.469,1.452-1.469h28.901
				c0.802,0,1.452,0.658,1.452,1.469V96.162z"/>
			
				<ellipse fill="#DDDDDD" stroke="#FFFFFF" stroke-width="0.5" stroke-miterlimit="10" cx="45.902" cy="90.149" rx="1.681" ry="1.702"/>
		</g>
		<g>
			<path fill="#FFFFFF" stroke="#DDDDDD" stroke-width="0.5" stroke-miterlimit="10" d="M96.586,96.162
				c0,0.812-0.65,1.469-1.452,1.469h-28.9c-0.802,0-1.452-0.658-1.452-1.469V84.136c0-0.812,0.649-1.469,1.452-1.469h28.9
				c0.802,0,1.452,0.658,1.452,1.469V96.162z"/>
			
				<ellipse fill="#DDDDDD" stroke="#FFFFFF" stroke-width="0.5" stroke-miterlimit="10" cx="80.684" cy="90.149" rx="1.681" ry="1.702"/>
		</g>
		<g>
			<path fill="#FFFFFF" stroke="#DDDDDD" stroke-width="0.5" stroke-miterlimit="10" d="M131.453,96.162
				c0,0.812-0.649,1.469-1.452,1.469h-28.9c-0.802,0-1.452-0.658-1.452-1.469V84.136c0-0.812,0.65-1.469,1.452-1.469h28.9
				c0.802,0,1.452,0.658,1.452,1.469V96.162z"/>
			
				<ellipse fill="#DDDDDD" stroke="#FFFFFF" stroke-width="0.5" stroke-miterlimit="10" cx="115.551" cy="90.149" rx="1.681" ry="1.702"/>
		</g>
		<g>
			<path fill="#FFFFFF" stroke="#DDDDDD" stroke-width="0.5" stroke-miterlimit="10" d="M166.232,96.162
				c0,0.812-0.65,1.469-1.452,1.469h-28.901c-0.802,0-1.452-0.658-1.452-1.469V84.136c0-0.812,0.65-1.469,1.452-1.469h28.901
				c0.802,0,1.452,0.658,1.452,1.469V96.162z"/>
			
				<ellipse fill="#DDDDDD" stroke="#FFFFFF" stroke-width="0.5" stroke-miterlimit="10" cx="150.33" cy="90.149" rx="1.681" ry="1.702"/>
		</g>
		<g>
			<path fill="#FFFFFF" stroke="#DDDDDD" stroke-width="0.5" stroke-miterlimit="10" d="M200.783,96.162
				c0,0.812-0.649,1.469-1.452,1.469h-28.9c-0.802,0-1.452-0.658-1.452-1.469V84.136c0-0.812,0.65-1.469,1.452-1.469h28.9
				c0.803,0,1.452,0.658,1.452,1.469V96.162z"/>
			
				<ellipse fill="#DDDDDD" stroke="#FFFFFF" stroke-width="0.5" stroke-miterlimit="10" cx="184.881" cy="90.149" rx="1.681" ry="1.702"/>
		</g>
		<g>
			<path fill="#FFFFFF" stroke="#DDDDDD" stroke-width="0.5" stroke-miterlimit="10" d="M235.615,96.162
				c0,0.812-0.649,1.469-1.452,1.469h-28.899c-0.802,0-1.451-0.658-1.451-1.469V84.136c0-0.812,0.649-1.469,1.451-1.469h28.899
				c0.803,0,1.452,0.658,1.452,1.469V96.162z"/>
			
				<ellipse fill="#DDDDDD" stroke="#FFFFFF" stroke-width="0.5" stroke-miterlimit="10" cx="219.713" cy="90.149" rx="1.681" ry="1.702"/>
		</g>
		<g>
			<path fill="#FFFFFF" stroke="#DDDDDD" stroke-width="0.5" stroke-miterlimit="10" d="M270.397,96.162
				c0,0.812-0.65,1.469-1.452,1.469h-28.9c-0.802,0-1.451-0.658-1.451-1.469V84.136c0-0.812,0.649-1.469,1.451-1.469h28.9
				c0.802,0,1.452,0.658,1.452,1.469V96.162z"/>
			
				<ellipse fill="#DDDDDD" stroke="#FFFFFF" stroke-width="0.5" stroke-miterlimit="10" cx="254.496" cy="90.149" rx="1.681" ry="1.702"/>
		</g>
		<g>
			<path fill="#FFFFFF" stroke="#DDDDDD" stroke-width="0.5" stroke-miterlimit="10" d="M305.265,96.162
				c0,0.812-0.65,1.469-1.452,1.469h-28.901c-0.802,0-1.451-0.658-1.451-1.469V84.136c0-0.812,0.649-1.469,1.451-1.469h28.901
				c0.802,0,1.452,0.658,1.452,1.469V96.162z"/>
			
				<ellipse fill="#DDDDDD" stroke="#FFFFFF" stroke-width="0.5" stroke-miterlimit="10" cx="289.362" cy="90.149" rx="1.681" ry="1.702"/>
		</g>
		<g>
			<path fill="#FFFFFF" stroke="#DDDDDD" stroke-width="0.5" stroke-miterlimit="10" d="M340.043,96.162
				c0,0.812-0.649,1.469-1.451,1.469H309.69c-0.802,0-1.452-0.658-1.452-1.469V84.136c0-0.812,0.65-1.469,1.452-1.469h28.901
				c0.802,0,1.451,0.658,1.451,1.469V96.162z"/>
			
				<ellipse fill="#DDDDDD" stroke="#FFFFFF" stroke-width="0.5" stroke-miterlimit="10" cx="324.141" cy="90.149" rx="1.682" ry="1.702"/>
		</g>
		<g>
			<path fill="#FFFFFF" stroke="#DDDDDD" stroke-width="0.5" stroke-miterlimit="10" d="M374.595,96.162
				c0,0.812-0.65,1.469-1.452,1.469h-28.9c-0.803,0-1.452-0.658-1.452-1.469V84.136c0-0.812,0.649-1.469,1.452-1.469h28.9
				c0.802,0,1.452,0.658,1.452,1.469V96.162z"/>
			
				<ellipse fill="#DDDDDD" stroke="#FFFFFF" stroke-width="0.5" stroke-miterlimit="10" cx="358.692" cy="90.149" rx="1.682" ry="1.702"/>
		</g>
		<g>
			<path fill="#FFFFFF" stroke="#DDDDDD" stroke-width="0.5" stroke-miterlimit="10" d="M409.889,96.162
				c0,0.812-0.649,1.469-1.451,1.469h-28.9c-0.803,0-1.452-0.658-1.452-1.469V84.136c0-0.812,0.649-1.469,1.452-1.469h28.9
				c0.802,0,1.451,0.658,1.451,1.469V96.162z"/>
			
				<ellipse fill="#DDDDDD" stroke="#FFFFFF" stroke-width="0.5" stroke-miterlimit="10" cx="393.987" cy="90.149" rx="1.682" ry="1.702"/>
		</g>
		<g>
			<path fill="#FFFFFF" stroke="#DDDDDD" stroke-width="0.5" stroke-miterlimit="10" d="M444.441,96.162
				c0,0.812-0.65,1.469-1.453,1.469h-28.9c-0.802,0-1.452-0.658-1.452-1.469V84.136c0-0.812,0.65-1.469,1.452-1.469h28.9
				c0.803,0,1.453,0.658,1.453,1.469V96.162z"/>
			
				<ellipse fill="#DDDDDD" stroke="#FFFFFF" stroke-width="0.5" stroke-miterlimit="10" cx="428.539" cy="90.149" rx="1.681" ry="1.702"/>
		</g>
	</g>
	<g opacity="0.5">
		<g>
			<path fill="#FFFFFF" stroke="#DDDDDD" stroke-width="0.5" stroke-miterlimit="10" d="M61.804,77.773
				c0,0.812-0.65,1.469-1.452,1.469H31.452c-0.802,0-1.452-0.658-1.452-1.469V65.747c0-0.812,0.65-1.469,1.452-1.469h28.901
				c0.802,0,1.452,0.658,1.452,1.469V77.773z"/>
			
				<ellipse fill="#DDDDDD" stroke="#FFFFFF" stroke-width="0.5" stroke-miterlimit="10" cx="45.902" cy="71.76" rx="1.681" ry="1.702"/>
		</g>
		<g>
			<path fill="#FFFFFF" stroke="#DDDDDD" stroke-width="0.5" stroke-miterlimit="10" d="M96.586,77.773
				c0,0.812-0.65,1.469-1.452,1.469h-28.9c-0.802,0-1.452-0.658-1.452-1.469V65.747c0-0.812,0.649-1.469,1.452-1.469h28.9
				c0.802,0,1.452,0.658,1.452,1.469V77.773z"/>
			
				<ellipse fill="#DDDDDD" stroke="#FFFFFF" stroke-width="0.5" stroke-miterlimit="10" cx="80.684" cy="71.76" rx="1.681" ry="1.702"/>
		</g>
		<g>
			<path fill="#FFFFFF" stroke="#DDDDDD" stroke-width="0.5" stroke-miterlimit="10" d="M131.453,77.773
				c0,0.812-0.649,1.469-1.452,1.469h-28.9c-0.802,0-1.452-0.658-1.452-1.469V65.747c0-0.812,0.65-1.469,1.452-1.469h28.9
				c0.802,0,1.452,0.658,1.452,1.469V77.773z"/>
			
				<ellipse fill="#DDDDDD" stroke="#FFFFFF" stroke-width="0.5" stroke-miterlimit="10" cx="115.551" cy="71.76" rx="1.681" ry="1.702"/>
		</g>
		<g>
			<path fill="#FFFFFF" stroke="#DDDDDD" stroke-width="0.5" stroke-miterlimit="10" d="M166.232,77.773
				c0,0.812-0.65,1.469-1.452,1.469h-28.901c-0.802,0-1.452-0.658-1.452-1.469V65.747c0-0.812,0.65-1.469,1.452-1.469h28.901
				c0.802,0,1.452,0.658,1.452,1.469V77.773z"/>
			
				<ellipse fill="#DDDDDD" stroke="#FFFFFF" stroke-width="0.5" stroke-miterlimit="10" cx="150.33" cy="71.76" rx="1.681" ry="1.702"/>
		</g>
		<g>
			<path fill="#FFFFFF" stroke="#DDDDDD" stroke-width="0.5" stroke-miterlimit="10" d="M200.783,77.773
				c0,0.812-0.649,1.469-1.452,1.469h-28.9c-0.802,0-1.452-0.658-1.452-1.469V65.747c0-0.812,0.65-1.469,1.452-1.469h28.9
				c0.803,0,1.452,0.658,1.452,1.469V77.773z"/>
			
				<ellipse fill="#DDDDDD" stroke="#FFFFFF" stroke-width="0.5" stroke-miterlimit="10" cx="184.881" cy="71.76" rx="1.681" ry="1.702"/>
		</g>
		<g>
			<path fill="#FFFFFF" stroke="#DDDDDD" stroke-width="0.5" stroke-miterlimit="10" d="M235.615,77.773
				c0,0.812-0.649,1.469-1.452,1.469h-28.899c-0.802,0-1.451-0.658-1.451-1.469V65.747c0-0.812,0.649-1.469,1.451-1.469h28.899
				c0.803,0,1.452,0.658,1.452,1.469V77.773z"/>
			
				<ellipse fill="#DDDDDD" stroke="#FFFFFF" stroke-width="0.5" stroke-miterlimit="10" cx="219.713" cy="71.76" rx="1.681" ry="1.702"/>
		</g>
		<g>
			<path fill="#FFFFFF" stroke="#DDDDDD" stroke-width="0.5" stroke-miterlimit="10" d="M270.397,77.773
				c0,0.812-0.65,1.469-1.452,1.469h-28.9c-0.802,0-1.451-0.658-1.451-1.469V65.747c0-0.812,0.649-1.469,1.451-1.469h28.9
				c0.802,0,1.452,0.658,1.452,1.469V77.773z"/>
			
				<ellipse fill="#DDDDDD" stroke="#FFFFFF" stroke-width="0.5" stroke-miterlimit="10" cx="254.496" cy="71.76" rx="1.681" ry="1.702"/>
		</g>
		<g>
			<path fill="#FFFFFF" stroke="#DDDDDD" stroke-width="0.5" stroke-miterlimit="10" d="M305.265,77.773
				c0,0.812-0.65,1.469-1.452,1.469h-28.901c-0.802,0-1.451-0.658-1.451-1.469V65.747c0-0.812,0.649-1.469,1.451-1.469h28.901
				c0.802,0,1.452,0.658,1.452,1.469V77.773z"/>
			
				<ellipse fill="#DDDDDD" stroke="#FFFFFF" stroke-width="0.5" stroke-miterlimit="10" cx="289.362" cy="71.76" rx="1.681" ry="1.702"/>
		</g>
		<g>
			<path fill="#FFFFFF" stroke="#DDDDDD" stroke-width="0.5" stroke-miterlimit="10" d="M340.043,77.773
				c0,0.812-0.649,1.469-1.451,1.469H309.69c-0.802,0-1.452-0.658-1.452-1.469V65.747c0-0.812,0.65-1.469,1.452-1.469h28.901
				c0.802,0,1.451,0.658,1.451,1.469V77.773z"/>
			
				<ellipse fill="#DDDDDD" stroke="#FFFFFF" stroke-width="0.5" stroke-miterlimit="10" cx="324.141" cy="71.76" rx="1.682" ry="1.702"/>
		</g>
		<g>
			<path fill="#FFFFFF" stroke="#DDDDDD" stroke-width="0.5" stroke-miterlimit="10" d="M374.595,77.773
				c0,0.812-0.65,1.469-1.452,1.469h-28.9c-0.803,0-1.452-0.658-1.452-1.469V65.747c0-0.812,0.649-1.469,1.452-1.469h28.9
				c0.802,0,1.452,0.658,1.452,1.469V77.773z"/>
			
				<ellipse fill="#DDDDDD" stroke="#FFFFFF" stroke-width="0.5" stroke-miterlimit="10" cx="358.692" cy="71.76" rx="1.682" ry="1.702"/>
		</g>
		<g>
			<path fill="#FFFFFF" stroke="#DDDDDD" stroke-width="0.5" stroke-miterlimit="10" d="M409.889,77.773
				c0,0.812-0.649,1.469-1.451,1.469h-28.9c-0.803,0-1.452-0.658-1.452-1.469V65.747c0-0.812,0.649-1.469,1.452-1.469h28.9
				c0.802,0,1.451,0.658,1.451,1.469V77.773z"/>
			
				<ellipse fill="#DDDDDD" stroke="#FFFFFF" stroke-width="0.5" stroke-miterlimit="10" cx="393.987" cy="71.76" rx="1.682" ry="1.702"/>
		</g>
		<g>
			<path fill="#FFFFFF" stroke="#DDDDDD" stroke-width="0.5" stroke-miterlimit="10" d="M444.441,77.773
				c0,0.812-0.65,1.469-1.453,1.469h-28.9c-0.802,0-1.452-0.658-1.452-1.469V65.747c0-0.812,0.65-1.469,1.452-1.469h28.9
				c0.803,0,1.453,0.658,1.453,1.469V77.773z"/>
			
				<ellipse fill="#DDDDDD" stroke="#FFFFFF" stroke-width="0.5" stroke-miterlimit="10" cx="428.539" cy="71.76" rx="1.681" ry="1.702"/>
		</g>
	</g>
	<text transform="matrix(1 0 0 1 161.627 76.7612)" fill="#69BE28" font-family="'MyriadPro-Regular'" font-size="14.2682">HDFS (Data Management)</text>
</g>
<g id="data_access">
	<path fill="none" stroke="#69BE28" stroke-miterlimit="10" d="M16.838-146.652h444.053v112.899H16.838V-146.652z"/>
	<path fill="#69BE28" d="M17.305-146.793h444.053v40.399H17.305V-146.793z"/>
	<path opacity="0.5" fill="#69BE28" d="M17.305-106.394h444.053v72.642H17.305V-106.394z"/>
	<text transform="matrix(1 0 0 1 42.127 -121.2505)" fill="#FFFFFF" font-family="'OpenSans'" font-size="14.2682">Data Access</text>
</g>
<g id="yarn">
	<path fill="#44697D" d="M16.838-26.97h444.053v55.496H16.838V-26.97z"/>
	<text transform="matrix(1 0 0 1 151.2949 17.1543)" fill="#FFFFFF" font-family="'MyriadPro-Regular'" font-size="14.2682">YARN: Data Operating System</text>
</g>
<g id="security">
	<text transform="matrix(1 0 0 1 489.2256 -121.6836)" fill="#69BE28" font-family="'MyriadPro-Regular'" font-size="10.6136">Security</text>
	<path fill="none" stroke="#69BE28" stroke-miterlimit="10" d="M475.027-145.792h95.708V108.5h-95.708V-145.792L475.027-145.792z"/>
</g>
<g id="governance_integration">
	<text transform="matrix(1 0 0 1 -76.9424 -121.6836)" fill="#69BE28" font-family="'MyriadPro-Regular'" font-size="10.6136">Governance</text>
	<text transform="matrix(1 0 0 1 -76.9424 -108.9463)" fill="#69BE28" font-family="'MyriadPro-Regular'" font-size="10.6136">Integration</text>
	<path fill="none" stroke="#69BE28" stroke-miterlimit="10" d="M-91-145.792H4.42V108.5H-91V-145.792z"/>
</g>
<g id="operations">
	<text transform="matrix(1 0 0 1 596.9951 -121.6836)" fill="#69BE28" font-family="'MyriadPro-Regular'" font-size="10.6136">Operations</text>
	<path fill="none" stroke="#69BE28" stroke-miterlimit="10" d="M582.581-145.792H678V108.5h-95.419V-145.792L582.581-145.792z"/>
</g>
<g id="element_1">
	<path fill="#FFFFFF" d="M98.217-72.53h-47.28c-1.72,0-2.771,1.145-2.771,2.77v47.567c0,1.72,1.146,2.77,2.771,2.77h12.13
		l1.433,5.062c0,1.719,1.146,2.77,2.771,2.77h14.327c1.719,0,2.77-1.147,2.77-2.77l1.431-5.062h12.131c1.719,0,2.77-1.147,2.77-2.77
		v-47.854C101.083-71.386,99.937-72.53,98.217-72.53z"/>
	<text transform="matrix(1 0 0 1 59.0469 -40.2627)" fill="#B3E28A" font-family="'OpenSans-Semibold'" font-size="11.2106">Batch</text>
</g>
<g id="element_2">
	<path fill="#FFFFFF" d="M164.698-72.53h-47.568c-1.72,0-2.77,1.145-2.77,2.77v47.567c0,1.72,1.146,2.77,2.77,2.77h12.131
		l1.432,5.062c0,1.719,1.146,2.77,2.771,2.77h14.327c1.72,0,2.771-1.147,2.771-2.77l1.433-5.062h12.129
		c1.719,0,2.771-1.147,2.771-2.77v-47.854C167.849-71.386,166.415-72.53,164.698-72.53z"/>
	<text transform="matrix(1 0 0 1 125.7041 -41.2822)" fill="#B3E28A" font-family="'OpenSans-Semibold'" font-size="11.2106">Script</text>
</g>
<g id="element_3">
	<path fill="#FFFFFF" d="M231.463-72.53h-47.568c-1.719,0-2.769,1.145-2.769,2.77v47.567c0,1.72,1.146,2.77,2.769,2.77h12.418
		l1.434,5.062c0,1.719,1.146,2.77,2.77,2.77h14.327c1.72,0,2.77-1.147,2.77-2.77l1.434-5.062h12.13c1.72,0,2.771-1.147,2.771-2.77
		v-47.854C234.232-71.386,233.181-72.53,231.463-72.53z"/>
	<text transform="matrix(1 0 0 1 197.3799 -40.7803)" fill="#B3E28A" font-family="'OpenSans-Semibold'" font-size="11.2106">SQL</text>
</g>
<g id="element_4">
	<path fill="#FFFFFF" d="M298.515-72.53h-47.565c-1.72,0-2.771,1.145-2.771,2.77v47.567c0,1.72,1.146,2.77,2.771,2.77h12.128
		l1.338,5.157c0,1.719,1.146,2.771,2.771,2.771h14.327c1.719,0,2.771-1.147,2.771-2.771l1.432-5.062h12.132
		c1.72,0,2.77-1.146,2.77-2.77v-47.854C300.997-71.386,299.852-72.53,298.515-72.53z"/>
	<text transform="matrix(1 0 0 1 257.167 -41.791)" fill="#B3E28A" font-family="'OpenSans-Semibold'" font-size="11.2106">NoSQL</text>
</g>
<g id="element_5">
	<path fill="#FFFFFF" d="M365.473-72.53h-47.566c-1.72,0-2.771,1.145-2.771,2.77v47.567c0,1.72,1.147,2.77,2.771,2.77h12.13
		l1.432,5.062c0,1.719,1.146,2.77,2.769,2.77h14.33c1.718,0,2.77-1.147,2.77-2.77l1.433-5.062h12.128
		c1.719,0,2.772-1.147,2.772-2.77v-47.854C368.336-71.386,367.19-72.53,365.473-72.53z"/>
	<text transform="matrix(1 0 0 1 321.624 -41.2822)" fill="#B3E28A" font-family="'OpenSans-Semibold'" font-size="11.2106">Stream</text>
</g>
<g id="element_6">
	<path fill="#FFFFFF" d="M429.657-72.53h-47.566c-1.719,0-2.769,1.145-2.769,2.77v47.567c0,1.72,1.146,2.77,2.769,2.77h12.132
		l1.434,5.062c0,1.719,1.145,2.77,2.766,2.77h14.33c1.719,0,2.769-1.147,2.769-2.77l1.435-5.062h12.128
		c1.721,0,2.772-1.147,2.772-2.77v-47.854C432.522-71.386,431.092-72.53,429.657-72.53z"/>
	<text transform="matrix(1 0 0 1 390.1016 -42.3047)" fill="#B3E28A" font-family="'OpenSans-Semibold'" font-size="11.2106">Other</text>
</g>
</svg>
