<?xml version="1.0" encoding="utf-8"?>
<!-- Generator: Adobe Illustrator 16.0.0, SVG Export Plug-In . SVG Version: 6.00 Build 0)  -->
<!DOCTYPE svg PUBLIC "-//W3C//DTD SVG 1.1//EN" "http://www.w3.org/Graphics/SVG/1.1/DTD/svg11.dtd">
<svg version="1.1" id="Layer_1" xmlns="http://www.w3.org/2000/svg" xmlns:xlink="http://www.w3.org/1999/xlink" x="0px" y="0px"
	 width="342px" height="342px" viewBox="0 0 342 342" enable-background="new 0 0 342 342" xml:space="preserve">
<g id="hdfs">
	<path fill="#B3E28A" d="M-0.633,16.163H495.11v82.033H-0.633V16.163z"/>
	<path fill="#FFFFFF" stroke="#C6C6C6" stroke-width="0.5" stroke-miterlimit="10" d="M486.859,88.087c0,1.883-1.08,3.41-2.412,3.41
		H8.659c-1.333,0-2.412-1.528-2.412-3.41v-61.84c0-1.883,1.08-3.409,2.412-3.409h475.789c1.332,0,2.412,1.527,2.412,3.409V88.087z"
		/>
	<g>
		<g>
			<path fill="#FFFFFF" stroke="#DDDDDD" stroke-width="0.5" stroke-miterlimit="10" d="M49.568,43.673
				c0,0.907-0.726,1.64-1.621,1.64H15.683c-0.896,0-1.621-0.734-1.621-1.64V30.248c0-0.906,0.726-1.64,1.621-1.64h32.265
				c0.895,0,1.621,0.735,1.621,1.64L49.568,43.673L49.568,43.673z"/>
			
				<ellipse fill="#DDDDDD" stroke="#FFFFFF" stroke-width="0.5" stroke-miterlimit="10" cx="31.814" cy="36.961" rx="1.877" ry="1.9"/>
		</g>
		<g>
			<path fill="#FFFFFF" stroke="#DDDDDD" stroke-width="0.5" stroke-miterlimit="10" d="M88.398,43.673
				c0,0.907-0.726,1.64-1.621,1.64H54.513c-0.895,0-1.621-0.734-1.621-1.64V30.248c0-0.906,0.725-1.64,1.621-1.64h32.264
				c0.896,0,1.621,0.735,1.621,1.64V43.673z"/>
			
				<ellipse fill="#DDDDDD" stroke="#FFFFFF" stroke-width="0.5" stroke-miterlimit="10" cx="70.646" cy="36.961" rx="1.877" ry="1.9"/>
		</g>
		<g>
			<path fill="#FFFFFF" stroke="#DDDDDD" stroke-width="0.5" stroke-miterlimit="10" d="M127.325,43.673
				c0,0.907-0.725,1.64-1.622,1.64H93.439c-0.896,0-1.622-0.734-1.622-1.64V30.248c0-0.906,0.726-1.64,1.622-1.64h32.264
				c0.896,0,1.622,0.735,1.622,1.64V43.673z"/>
			
				<ellipse fill="#DDDDDD" stroke="#FFFFFF" stroke-width="0.5" stroke-miterlimit="10" cx="109.571" cy="36.961" rx="1.877" ry="1.9"/>
		</g>
		<g>
			<path fill="#FFFFFF" stroke="#DDDDDD" stroke-width="0.5" stroke-miterlimit="10" d="M166.152,43.673
				c0,0.907-0.726,1.64-1.621,1.64h-32.266c-0.895,0-1.621-0.734-1.621-1.64V30.248c0-0.906,0.726-1.64,1.621-1.64h32.266
				c0.896,0,1.621,0.735,1.621,1.64V43.673z"/>
			
				<ellipse fill="#DDDDDD" stroke="#FFFFFF" stroke-width="0.5" stroke-miterlimit="10" cx="148.398" cy="36.961" rx="1.877" ry="1.9"/>
		</g>
		<g>
			<path fill="#FFFFFF" stroke="#DDDDDD" stroke-width="0.5" stroke-miterlimit="10" d="M204.725,43.673
				c0,0.907-0.725,1.64-1.62,1.64H170.84c-0.896,0-1.621-0.734-1.621-1.64V30.248c0-0.906,0.726-1.64,1.621-1.64h32.265
				c0.896,0,1.62,0.735,1.62,1.64V43.673z"/>
			
				<ellipse fill="#DDDDDD" stroke="#FFFFFF" stroke-width="0.5" stroke-miterlimit="10" cx="186.972" cy="36.961" rx="1.877" ry="1.9"/>
		</g>
		<g>
			<path fill="#FFFFFF" stroke="#DDDDDD" stroke-width="0.5" stroke-miterlimit="10" d="M243.611,43.673
				c0,0.907-0.725,1.64-1.621,1.64h-32.264c-0.896,0-1.62-0.734-1.62-1.64V30.248c0-0.906,0.725-1.64,1.62-1.64h32.264
				c0.896,0,1.621,0.735,1.621,1.64V43.673z"/>
			
				<ellipse fill="#DDDDDD" stroke="#FFFFFF" stroke-width="0.5" stroke-miterlimit="10" cx="225.857" cy="36.961" rx="1.878" ry="1.9"/>
		</g>
		<g>
			<path fill="#FFFFFF" stroke="#DDDDDD" stroke-width="0.5" stroke-miterlimit="10" d="M282.441,43.673
				c0,0.907-0.725,1.64-1.62,1.64h-32.265c-0.895,0-1.62-0.734-1.62-1.64V30.248c0-0.906,0.726-1.64,1.62-1.64h32.265
				c0.896,0,1.62,0.735,1.62,1.64V43.673z"/>
			
				<ellipse fill="#DDDDDD" stroke="#FFFFFF" stroke-width="0.5" stroke-miterlimit="10" cx="264.69" cy="36.961" rx="1.876" ry="1.9"/>
		</g>
		<g>
			<path fill="#FFFFFF" stroke="#DDDDDD" stroke-width="0.5" stroke-miterlimit="10" d="M321.37,43.673
				c0,0.907-0.728,1.64-1.623,1.64h-32.264c-0.896,0-1.62-0.734-1.62-1.64V30.248c0-0.906,0.724-1.64,1.62-1.64h32.264
				c0.896,0,1.623,0.735,1.623,1.64V43.673z"/>
			
				<ellipse fill="#DDDDDD" stroke="#FFFFFF" stroke-width="0.5" stroke-miterlimit="10" cx="303.613" cy="36.961" rx="1.878" ry="1.9"/>
		</g>
		<g>
			<path fill="#FFFFFF" stroke="#DDDDDD" stroke-width="0.5" stroke-miterlimit="10" d="M360.195,43.673
				c0,0.907-0.725,1.64-1.62,1.64H326.31c-0.896,0-1.621-0.734-1.621-1.64V30.248c0-0.906,0.725-1.64,1.621-1.64h32.265
				c0.896,0,1.62,0.735,1.62,1.64L360.195,43.673L360.195,43.673z"/>
			
				<ellipse fill="#DDDDDD" stroke="#FFFFFF" stroke-width="0.5" stroke-miterlimit="10" cx="342.441" cy="36.961" rx="1.879" ry="1.9"/>
		</g>
		<g>
			<path fill="#FFFFFF" stroke="#DDDDDD" stroke-width="0.5" stroke-miterlimit="10" d="M398.769,43.673
				c0,0.907-0.725,1.64-1.621,1.64h-32.264c-0.896,0-1.621-0.734-1.621-1.64V30.248c0-0.906,0.726-1.64,1.621-1.64h32.264
				c0.896,0,1.621,0.735,1.621,1.64V43.673z"/>
			
				<ellipse fill="#DDDDDD" stroke="#FFFFFF" stroke-width="0.5" stroke-miterlimit="10" cx="381.016" cy="36.961" rx="1.878" ry="1.9"/>
		</g>
		<g>
			<path fill="#FFFFFF" stroke="#DDDDDD" stroke-width="0.5" stroke-miterlimit="10" d="M438.172,43.673
				c0,0.907-0.725,1.64-1.619,1.64h-32.265c-0.896,0-1.621-0.734-1.621-1.64V30.248c0-0.906,0.725-1.64,1.621-1.64h32.265
				c0.895,0,1.619,0.735,1.619,1.64V43.673z"/>
			
				<ellipse fill="#DDDDDD" stroke="#FFFFFF" stroke-width="0.5" stroke-miterlimit="10" cx="420.419" cy="36.961" rx="1.877" ry="1.9"/>
		</g>
		<g>
			<path fill="#FFFFFF" stroke="#DDDDDD" stroke-width="0.5" stroke-miterlimit="10" d="M476.746,43.673
				c0,0.907-0.726,1.64-1.622,1.64h-32.265c-0.895,0-1.621-0.734-1.621-1.64V30.248c0-0.906,0.727-1.64,1.621-1.64h32.265
				c0.896,0,1.622,0.735,1.622,1.64V43.673z"/>
			
				<ellipse fill="#DDDDDD" stroke="#FFFFFF" stroke-width="0.5" stroke-miterlimit="10" cx="458.993" cy="36.961" rx="1.876" ry="1.9"/>
		</g>
	</g>
	<g>
		<g>
			<path fill="#FFFFFF" stroke="#DDDDDD" stroke-width="0.5" stroke-miterlimit="10" d="M49.568,84.422
				c0,0.907-0.726,1.64-1.621,1.64H15.683c-0.896,0-1.621-0.734-1.621-1.64V70.996c0-0.906,0.726-1.64,1.621-1.64h32.265
				c0.895,0,1.621,0.735,1.621,1.64L49.568,84.422L49.568,84.422z"/>
			
				<ellipse fill="#DDDDDD" stroke="#FFFFFF" stroke-width="0.5" stroke-miterlimit="10" cx="31.814" cy="77.709" rx="1.877" ry="1.901"/>
		</g>
		<g>
			<path fill="#FFFFFF" stroke="#DDDDDD" stroke-width="0.5" stroke-miterlimit="10" d="M88.398,84.422
				c0,0.907-0.726,1.64-1.621,1.64H54.513c-0.895,0-1.621-0.734-1.621-1.64V70.996c0-0.906,0.725-1.64,1.621-1.64h32.264
				c0.896,0,1.621,0.735,1.621,1.64V84.422z"/>
			
				<ellipse fill="#DDDDDD" stroke="#FFFFFF" stroke-width="0.5" stroke-miterlimit="10" cx="70.646" cy="77.709" rx="1.877" ry="1.901"/>
		</g>
		<g>
			<path fill="#FFFFFF" stroke="#DDDDDD" stroke-width="0.5" stroke-miterlimit="10" d="M127.325,84.422
				c0,0.907-0.725,1.64-1.622,1.64H93.439c-0.896,0-1.622-0.734-1.622-1.64V70.996c0-0.906,0.726-1.64,1.622-1.64h32.264
				c0.896,0,1.622,0.735,1.622,1.64V84.422z"/>
			
				<ellipse fill="#DDDDDD" stroke="#FFFFFF" stroke-width="0.5" stroke-miterlimit="10" cx="109.571" cy="77.709" rx="1.877" ry="1.901"/>
		</g>
		<g>
			<path fill="#FFFFFF" stroke="#DDDDDD" stroke-width="0.5" stroke-miterlimit="10" d="M166.152,84.422
				c0,0.907-0.726,1.64-1.621,1.64h-32.266c-0.895,0-1.621-0.734-1.621-1.64V70.996c0-0.906,0.726-1.64,1.621-1.64h32.266
				c0.896,0,1.621,0.735,1.621,1.64V84.422z"/>
			
				<ellipse fill="#DDDDDD" stroke="#FFFFFF" stroke-width="0.5" stroke-miterlimit="10" cx="148.398" cy="77.709" rx="1.877" ry="1.901"/>
		</g>
		<g>
			<path fill="#FFFFFF" stroke="#DDDDDD" stroke-width="0.5" stroke-miterlimit="10" d="M204.725,84.422
				c0,0.907-0.725,1.64-1.62,1.64H170.84c-0.896,0-1.621-0.734-1.621-1.64V70.996c0-0.906,0.726-1.64,1.621-1.64h32.265
				c0.896,0,1.62,0.735,1.62,1.64V84.422z"/>
			
				<ellipse fill="#DDDDDD" stroke="#FFFFFF" stroke-width="0.5" stroke-miterlimit="10" cx="186.972" cy="77.709" rx="1.877" ry="1.901"/>
		</g>
		<g>
			<path fill="#FFFFFF" stroke="#DDDDDD" stroke-width="0.5" stroke-miterlimit="10" d="M243.611,84.422
				c0,0.907-0.725,1.64-1.621,1.64h-32.264c-0.896,0-1.62-0.734-1.62-1.64V70.996c0-0.906,0.725-1.64,1.62-1.64h32.264
				c0.896,0,1.621,0.735,1.621,1.64V84.422z"/>
			
				<ellipse fill="#DDDDDD" stroke="#FFFFFF" stroke-width="0.5" stroke-miterlimit="10" cx="225.857" cy="77.709" rx="1.878" ry="1.901"/>
		</g>
		<g>
			<path fill="#FFFFFF" stroke="#DDDDDD" stroke-width="0.5" stroke-miterlimit="10" d="M282.441,84.422
				c0,0.907-0.725,1.64-1.62,1.64h-32.265c-0.895,0-1.62-0.734-1.62-1.64V70.996c0-0.906,0.726-1.64,1.62-1.64h32.265
				c0.896,0,1.62,0.735,1.62,1.64V84.422z"/>
			
				<ellipse fill="#DDDDDD" stroke="#FFFFFF" stroke-width="0.5" stroke-miterlimit="10" cx="264.69" cy="77.709" rx="1.876" ry="1.901"/>
		</g>
		<g>
			<path fill="#FFFFFF" stroke="#DDDDDD" stroke-width="0.5" stroke-miterlimit="10" d="M321.37,84.422
				c0,0.907-0.728,1.64-1.623,1.64h-32.264c-0.896,0-1.62-0.734-1.62-1.64V70.996c0-0.906,0.724-1.64,1.62-1.64h32.264
				c0.896,0,1.623,0.735,1.623,1.64V84.422z"/>
			
				<ellipse fill="#DDDDDD" stroke="#FFFFFF" stroke-width="0.5" stroke-miterlimit="10" cx="303.613" cy="77.709" rx="1.878" ry="1.901"/>
		</g>
		<g>
			<path fill="#FFFFFF" stroke="#DDDDDD" stroke-width="0.5" stroke-miterlimit="10" d="M360.195,84.422
				c0,0.907-0.725,1.64-1.62,1.64H326.31c-0.896,0-1.621-0.734-1.621-1.64V70.996c0-0.906,0.725-1.64,1.621-1.64h32.265
				c0.896,0,1.62,0.735,1.62,1.64L360.195,84.422L360.195,84.422z"/>
			
				<ellipse fill="#DDDDDD" stroke="#FFFFFF" stroke-width="0.5" stroke-miterlimit="10" cx="342.441" cy="77.709" rx="1.879" ry="1.901"/>
		</g>
		<g>
			<path fill="#FFFFFF" stroke="#DDDDDD" stroke-width="0.5" stroke-miterlimit="10" d="M398.769,84.422
				c0,0.907-0.725,1.64-1.621,1.64h-32.264c-0.896,0-1.621-0.734-1.621-1.64V70.996c0-0.906,0.726-1.64,1.621-1.64h32.264
				c0.896,0,1.621,0.735,1.621,1.64V84.422z"/>
			
				<ellipse fill="#DDDDDD" stroke="#FFFFFF" stroke-width="0.5" stroke-miterlimit="10" cx="381.016" cy="77.709" rx="1.878" ry="1.901"/>
		</g>
		<g>
			<path fill="#FFFFFF" stroke="#DDDDDD" stroke-width="0.5" stroke-miterlimit="10" d="M438.172,84.422
				c0,0.907-0.725,1.64-1.619,1.64h-32.265c-0.896,0-1.621-0.734-1.621-1.64V70.996c0-0.906,0.725-1.64,1.621-1.64h32.265
				c0.895,0,1.619,0.735,1.619,1.64V84.422z"/>
			
				<ellipse fill="#DDDDDD" stroke="#FFFFFF" stroke-width="0.5" stroke-miterlimit="10" cx="420.419" cy="77.709" rx="1.877" ry="1.901"/>
		</g>
		<g>
			<path fill="#FFFFFF" stroke="#DDDDDD" stroke-width="0.5" stroke-miterlimit="10" d="M476.746,84.422
				c0,0.907-0.726,1.64-1.622,1.64h-32.265c-0.895,0-1.621-0.734-1.621-1.64V70.996c0-0.906,0.727-1.64,1.621-1.64h32.265
				c0.896,0,1.622,0.735,1.622,1.64V84.422z"/>
			
				<ellipse fill="#DDDDDD" stroke="#FFFFFF" stroke-width="0.5" stroke-miterlimit="10" cx="458.993" cy="77.709" rx="1.876" ry="1.901"/>
		</g>
	</g>
	<g opacity="0.5">
		<g>
			<path fill="#FFFFFF" stroke="#DDDDDD" stroke-width="0.5" stroke-miterlimit="10" d="M49.568,63.893
				c0,0.906-0.726,1.641-1.621,1.641H15.683c-0.896,0-1.621-0.735-1.621-1.641V50.467c0-0.907,0.726-1.641,1.621-1.641h32.265
				c0.895,0,1.621,0.735,1.621,1.641L49.568,63.893L49.568,63.893z"/>
			
				<ellipse fill="#DDDDDD" stroke="#FFFFFF" stroke-width="0.5" stroke-miterlimit="10" cx="31.814" cy="57.18" rx="1.877" ry="1.9"/>
		</g>
		<g>
			<path fill="#FFFFFF" stroke="#DDDDDD" stroke-width="0.5" stroke-miterlimit="10" d="M88.398,63.893
				c0,0.906-0.726,1.641-1.621,1.641H54.513c-0.895,0-1.621-0.735-1.621-1.641V50.467c0-0.907,0.725-1.641,1.621-1.641h32.264
				c0.896,0,1.621,0.735,1.621,1.641V63.893z"/>
			
				<ellipse fill="#DDDDDD" stroke="#FFFFFF" stroke-width="0.5" stroke-miterlimit="10" cx="70.646" cy="57.18" rx="1.877" ry="1.9"/>
		</g>
		<g>
			<path fill="#FFFFFF" stroke="#DDDDDD" stroke-width="0.5" stroke-miterlimit="10" d="M127.325,63.893
				c0,0.906-0.725,1.641-1.622,1.641H93.439c-0.896,0-1.622-0.735-1.622-1.641V50.467c0-0.907,0.726-1.641,1.622-1.641h32.264
				c0.896,0,1.622,0.735,1.622,1.641V63.893z"/>
			
				<ellipse fill="#DDDDDD" stroke="#FFFFFF" stroke-width="0.5" stroke-miterlimit="10" cx="109.571" cy="57.18" rx="1.877" ry="1.9"/>
		</g>
		<g>
			<path fill="#FFFFFF" stroke="#DDDDDD" stroke-width="0.5" stroke-miterlimit="10" d="M166.152,63.893
				c0,0.906-0.726,1.641-1.621,1.641h-32.266c-0.895,0-1.621-0.735-1.621-1.641V50.467c0-0.907,0.726-1.641,1.621-1.641h32.266
				c0.896,0,1.621,0.735,1.621,1.641V63.893z"/>
			
				<ellipse fill="#DDDDDD" stroke="#FFFFFF" stroke-width="0.5" stroke-miterlimit="10" cx="148.398" cy="57.18" rx="1.877" ry="1.9"/>
		</g>
		<g>
			<path fill="#FFFFFF" stroke="#DDDDDD" stroke-width="0.5" stroke-miterlimit="10" d="M204.725,63.893
				c0,0.906-0.725,1.641-1.62,1.641H170.84c-0.896,0-1.621-0.735-1.621-1.641V50.467c0-0.907,0.726-1.641,1.621-1.641h32.265
				c0.896,0,1.62,0.735,1.62,1.641V63.893z"/>
			
				<ellipse fill="#DDDDDD" stroke="#FFFFFF" stroke-width="0.5" stroke-miterlimit="10" cx="186.972" cy="57.18" rx="1.877" ry="1.9"/>
		</g>
		<g>
			<path fill="#FFFFFF" stroke="#DDDDDD" stroke-width="0.5" stroke-miterlimit="10" d="M243.611,63.893
				c0,0.906-0.725,1.641-1.621,1.641h-32.264c-0.896,0-1.62-0.735-1.62-1.641V50.467c0-0.907,0.725-1.641,1.62-1.641h32.264
				c0.896,0,1.621,0.735,1.621,1.641V63.893z"/>
			
				<ellipse fill="#DDDDDD" stroke="#FFFFFF" stroke-width="0.5" stroke-miterlimit="10" cx="225.857" cy="57.18" rx="1.878" ry="1.9"/>
		</g>
		<g>
			<path fill="#FFFFFF" stroke="#DDDDDD" stroke-width="0.5" stroke-miterlimit="10" d="M282.441,63.893
				c0,0.906-0.725,1.641-1.62,1.641h-32.265c-0.895,0-1.62-0.735-1.62-1.641V50.467c0-0.907,0.726-1.641,1.62-1.641h32.265
				c0.896,0,1.62,0.735,1.62,1.641V63.893z"/>
			
				<ellipse fill="#DDDDDD" stroke="#FFFFFF" stroke-width="0.5" stroke-miterlimit="10" cx="264.69" cy="57.18" rx="1.876" ry="1.9"/>
		</g>
		<g>
			<path fill="#FFFFFF" stroke="#DDDDDD" stroke-width="0.5" stroke-miterlimit="10" d="M321.37,63.893
				c0,0.906-0.728,1.641-1.623,1.641h-32.264c-0.896,0-1.62-0.735-1.62-1.641V50.467c0-0.907,0.724-1.641,1.62-1.641h32.264
				c0.896,0,1.623,0.735,1.623,1.641V63.893z"/>
			
				<ellipse fill="#DDDDDD" stroke="#FFFFFF" stroke-width="0.5" stroke-miterlimit="10" cx="303.613" cy="57.18" rx="1.878" ry="1.9"/>
		</g>
		<g>
			<path fill="#FFFFFF" stroke="#DDDDDD" stroke-width="0.5" stroke-miterlimit="10" d="M360.195,63.893
				c0,0.906-0.725,1.641-1.62,1.641H326.31c-0.896,0-1.621-0.735-1.621-1.641V50.467c0-0.907,0.725-1.641,1.621-1.641h32.265
				c0.896,0,1.62,0.735,1.62,1.641L360.195,63.893L360.195,63.893z"/>
			
				<ellipse fill="#DDDDDD" stroke="#FFFFFF" stroke-width="0.5" stroke-miterlimit="10" cx="342.441" cy="57.18" rx="1.879" ry="1.9"/>
		</g>
		<g>
			<path fill="#FFFFFF" stroke="#DDDDDD" stroke-width="0.5" stroke-miterlimit="10" d="M398.769,63.893
				c0,0.906-0.725,1.641-1.621,1.641h-32.264c-0.896,0-1.621-0.735-1.621-1.641V50.467c0-0.907,0.726-1.641,1.621-1.641h32.264
				c0.896,0,1.621,0.735,1.621,1.641V63.893z"/>
			
				<ellipse fill="#DDDDDD" stroke="#FFFFFF" stroke-width="0.5" stroke-miterlimit="10" cx="381.016" cy="57.18" rx="1.878" ry="1.9"/>
		</g>
		<g>
			<path fill="#FFFFFF" stroke="#DDDDDD" stroke-width="0.5" stroke-miterlimit="10" d="M438.172,63.893
				c0,0.906-0.725,1.641-1.619,1.641h-32.265c-0.896,0-1.621-0.735-1.621-1.641V50.467c0-0.907,0.725-1.641,1.621-1.641h32.265
				c0.895,0,1.619,0.735,1.619,1.641V63.893z"/>
			
				<ellipse fill="#DDDDDD" stroke="#FFFFFF" stroke-width="0.5" stroke-miterlimit="10" cx="420.419" cy="57.18" rx="1.877" ry="1.9"/>
		</g>
		<g>
			<path fill="#FFFFFF" stroke="#DDDDDD" stroke-width="0.5" stroke-miterlimit="10" d="M476.746,63.893
				c0,0.906-0.726,1.641-1.622,1.641h-32.265c-0.895,0-1.621-0.735-1.621-1.641V50.467c0-0.907,0.727-1.641,1.621-1.641h32.265
				c0.896,0,1.622,0.735,1.622,1.641V63.893z"/>
			
				<ellipse fill="#DDDDDD" stroke="#FFFFFF" stroke-width="0.5" stroke-miterlimit="10" cx="458.993" cy="57.18" rx="1.876" ry="1.9"/>
		</g>
	</g>
	<text transform="matrix(1 0 0 1 161.0107 62.7627)" fill="#69BE28" font-family="'MyriadPro-Regular'" font-size="15.9291">HDFS (Data Management)</text>
</g>
<g id="data_access">
	<path fill="none" stroke="#69BE28" stroke-miterlimit="10" d="M-0.633-186.656H495.11v126.041H-0.633V-186.656z"/>
	<path fill="#69BE28" d="M-0.111-186.814h495.743v45.102H-0.111V-186.814z"/>
	<path opacity="0.5" fill="#69BE28" enable-background="new    " d="M-0.111-141.712h495.743v81.098H-0.111V-141.712z"/>
	<text transform="matrix(1 0 0 1 27.6006 -158.2969)" fill="#FFFFFF" font-family="'OpenSans'" font-size="15.9291">Data Access</text>
</g>
<g id="yarn">
	<path fill="#44697D" d="M-0.633-53.042H495.11V8.913H-0.633V-53.042z"/>
	<text transform="matrix(1 0 0 1 149.4766 -3.7822)" fill="#FFFFFF" font-family="'MyriadPro-Regular'" font-size="15.9291">YARN: Data Operating System</text>
</g>
<g id="security">
	<text transform="matrix(1 0 0 1 526.7441 -158.7812)" fill="#69BE28" font-family="'MyriadPro-Regular'" font-size="11.8491">Security</text>
	<path fill="none" stroke="#69BE28" stroke-miterlimit="10" d="M510.893-185.696h106.849V98.196H510.893V-185.696L510.893-185.696z"
		/>
	<g id="security_pointer">
		<polygon fill="#EEEEEE" points="521.557,196.454 564.317,112.724 607.077,196.454 		"/>
	</g>
</g>
<g id="governance_integration">
	<text transform="matrix(1 0 0 1 -105.3291 -158.7812)" fill="#69BE28" font-family="'MyriadPro-Regular'" font-size="11.8491">Governance</text>
	<text transform="matrix(1 0 0 1 -105.3291 -144.5615)" fill="#69BE28" font-family="'MyriadPro-Regular'" font-size="11.8491">Integration</text>
	<path fill="none" stroke="#69BE28" stroke-miterlimit="10" d="M-121.023-185.696h106.527V98.196h-106.527V-185.696z"/>
	<g id="governance_pointer">
		<polygon fill="#EEEEEE" points="-110.519,197.014 -67.76,113.284 -25,197.014 		"/>
	</g>
</g>
<g id="operations">
	<text transform="matrix(1 0 0 1 647.0576 -158.7812)" fill="#69BE28" font-family="'MyriadPro-Regular'" font-size="11.8491">Operations</text>
	<path fill="none" stroke="#69BE28" stroke-miterlimit="10" d="M630.966-185.696h106.526V98.196H630.966V-185.696L630.966-185.696z"
		/>
	<g id="operations_pointer">
		<polygon fill="#EEEEEE" points="642.588,196.454 685.348,112.724 728.108,196.454 		"/>
	</g>
</g>
<g id="element_1">
	<path fill="#FFFFFF" stroke="#DDDDDD" stroke-miterlimit="10" d="M90.219-103.907H37.436c-1.92,0-3.093,1.279-3.093,3.093v53.104
		c0,1.92,1.279,3.093,3.093,3.093h13.542l1.6,5.651c0,1.919,1.279,3.092,3.094,3.092h15.995c1.919,0,3.092-1.281,3.092-3.092
		l1.598-5.651h13.543c1.918,0,3.092-1.281,3.092-3.093v-53.424C93.419-102.628,92.14-103.907,90.219-103.907z"/>
	<text transform="matrix(1 0 0 1 46.4893 -67.8828)" fill="#B3E28A" font-family="'OpenSans-Semibold'" font-size="12.5156">Batch</text>
</g>
<g id="element_2">
	<path fill="#FFFFFF" stroke="#DDDDDD" stroke-miterlimit="10" d="M164.439-103.907h-53.105c-1.92,0-3.092,1.279-3.092,3.093v53.104
		c0,1.92,1.279,3.093,3.092,3.093h13.543l1.598,5.651c0,1.919,1.28,3.092,3.094,3.092h15.995c1.92,0,3.093-1.281,3.093-3.092
		l1.601-5.651h13.54c1.92,0,3.095-1.281,3.095-3.093v-53.424C167.957-102.628,166.355-103.907,164.439-103.907z"/>
	<text transform="matrix(1 0 0 1 120.9062 -69.0205)" fill="#B3E28A" font-family="'OpenSans-Semibold'" font-size="12.5156">Script</text>
</g>
<g id="element_3">
	<path fill="#FFFFFF" stroke="#DDDDDD" stroke-miterlimit="10" d="M238.976-103.907H185.87c-1.919,0-3.091,1.279-3.091,3.093v53.104
		c0,1.92,1.279,3.093,3.091,3.093h13.864l1.602,5.651c0,1.919,1.278,3.092,3.092,3.092h15.994c1.922,0,3.092-1.281,3.092-3.092
		l1.602-5.651h13.542c1.921,0,3.095-1.281,3.095-3.093v-53.424C242.067-102.628,240.895-103.907,238.976-103.907z"/>
	<text transform="matrix(1 0 0 1 200.9258 -68.4609)" fill="#B3E28A" font-family="'OpenSans-Semibold'" font-size="12.5156">SQL</text>
</g>
<g id="element_4">
	<path fill="#FFFFFF" stroke="#DDDDDD" stroke-miterlimit="10" d="M313.834-103.907h-53.103c-1.92,0-3.093,1.279-3.093,3.093v53.104
		c0,1.92,1.279,3.093,3.093,3.093h13.54l1.493,5.757c0,1.919,1.28,3.094,3.095,3.094h15.994c1.918,0,3.094-1.28,3.094-3.094
		l1.598-5.651h13.546c1.919,0,3.091-1.279,3.091-3.093v-53.424C316.604-102.628,315.325-103.907,313.834-103.907z"/>
	<text transform="matrix(1 0 0 1 267.6729 -69.5889)" fill="#B3E28A" font-family="'OpenSans-Semibold'" font-size="12.5156">NoSQL</text>
</g>
<g id="element_5">
	<path fill="#FFFFFF" stroke="#DDDDDD" stroke-miterlimit="10" d="M388.585-103.907h-53.102c-1.921,0-3.095,1.279-3.095,3.093
		v53.104c0,1.92,1.28,3.093,3.095,3.093h13.542l1.597,5.651c0,1.919,1.281,3.092,3.093,3.092h15.998
		c1.918,0,3.092-1.281,3.092-3.092l1.601-5.651h13.54c1.919,0,3.094-1.281,3.094-3.093v-53.424
		C391.781-102.628,390.503-103.907,388.585-103.907z"/>
	<text transform="matrix(1 0 0 1 339.6318 -69.0205)" fill="#B3E28A" font-family="'OpenSans-Semibold'" font-size="12.5156">Stream</text>
</g>
<g id="element_6">
	<path fill="#FFFFFF" stroke="#DDDDDD" stroke-miterlimit="10" d="M460.24-103.907h-53.103c-1.919,0-3.091,1.279-3.091,3.093v53.104
		c0,1.92,1.278,3.093,3.091,3.093h13.545l1.601,5.651c0,1.919,1.278,3.092,3.088,3.092h15.998c1.918,0,3.091-1.281,3.091-3.092
		l1.603-5.651h13.54c1.921,0,3.095-1.281,3.095-3.093v-53.424C463.439-102.628,461.842-103.907,460.24-103.907z"/>
	<text transform="matrix(1 0 0 1 416.0811 -70.1621)" fill="#B3E28A" font-family="'OpenSans-Semibold'" font-size="12.5156">Other</text>
</g>
</svg>
