<?xml version="1.0" encoding="utf-8"?>
<!-- Generator: Adobe Illustrator 18.1.0, SVG Export Plug-In . SVG Version: 6.00 Build 0)  -->
<svg version="1.1" id="Layer_1" xmlns="http://www.w3.org/2000/svg" xmlns:xlink="http://www.w3.org/1999/xlink" x="0px" y="0px"
	 viewBox="-174 116 960 560" enable-background="new -174 116 960 560" xml:space="preserve">
<path fill="none" stroke="#000000" stroke-miterlimit="10" d="M32.3,191.4h452.1V301H32.3L32.3,191.4z"/>
<text transform="matrix(1 0 0 1 59.7699 219.9458)" font-family="'MyriadPro-Regular'" font-size="10.2746">Data Acccess</text>
<text transform="matrix(1 0 0 1 59.7699 451.6731)" font-family="'MyriadPro-Regular'" font-size="10.2746">Data Management</text>
<text transform="matrix(1 0 0 1 -58.1452 451.6735)" font-family="'MyriadPro-Regular'" font-size="10.2746">Governance</text>
<path fill="none" stroke="#000000" stroke-miterlimit="10" d="M32.3,307.8h452.1v157.5H32.3L32.3,307.8z"/>
<circle cx="87.1" cy="307.8" r="27.4"/>
<circle cx="156.1" cy="307.8" r="27.4"/>
<circle cx="225.2" cy="307.8" r="27.4"/>
<circle cx="294.2" cy="307.8" r="27.4"/>
<circle cx="363.2" cy="307.8" r="27.4"/>
<circle cx="432.2" cy="307.8" r="27.4"/>
<path fill="none" stroke="#000000" stroke-miterlimit="10" d="M-71.9,191.4h92.5v274h-92.5V191.4z"/>
<text transform="matrix(1 0 0 1 510.1882 451.6735)" font-family="'MyriadPro-Regular'" font-size="10.2746">Security</text>
<path fill="none" stroke="#000000" stroke-miterlimit="10" d="M496.5,191.4h92.5v274h-92.5V191.4z"/>
<text transform="matrix(1 0 0 1 611.8549 451.6735)" font-family="'MyriadPro-Regular'" font-size="10.2746">Operations</text>
<path fill="none" stroke="#000000" stroke-miterlimit="10" d="M598.1,191.4h92.5v274h-92.5V191.4z"/>
</svg>
