<?xml version="1.0" encoding="utf-8"?>
<!-- Generator: Adobe Illustrator 18.1.0, SVG Export Plug-In . SVG Version: 6.00 Build 0)  -->
<svg version="1.1" id="Layer_1" xmlns="http://www.w3.org/2000/svg" xmlns:xlink="http://www.w3.org/1999/xlink" x="0px" y="0px"
	 viewBox="0 0 32 32" enable-background="new 0 0 32 32" xml:space="preserve">
<path fill-rule="evenodd" clip-rule="evenodd" fill="none" d="M30,18h-1.2c-0.3,2.1-1.1,4-2.3,5.7l0.9,0.9C27.8,25,28,25.5,28,26
	c0,0.5-0.2,1-0.6,1.4C27,27.8,26.5,28,26,28c-0.5,0-1-0.2-1.4-0.6l-0.9-0.9c-1.6,1.2-3.6,2-5.7,2.3V30c0,1.1-0.9,2-2,2s-2-0.9-2-2
	v-1.2c-2.1-0.3-4-1.1-5.7-2.3l-0.9,0.9C7,27.8,6.5,28,6,28c-0.5,0-1-0.2-1.4-0.6C4.2,27,4,26.5,4,26c0-0.5,0.2-1,0.6-1.4l0.9-0.9
	c-1.2-1.6-2-3.6-2.3-5.7H2c-1.1,0-2-0.9-2-2c0-1.1,0.9-2,2-2h1.2c0.3-2.1,1.1-4,2.3-5.7L4.6,7.4C4.2,7,4,6.5,4,6s0.2-1,0.6-1.4
	C5,4.2,5.5,4,6,4c0.5,0,1,0.2,1.4,0.6l0.9,0.9c1.6-1.2,3.6-2,5.7-2.3V2c0-1.1,0.9-2,2-2s2,0.9,2,2v1.2c2.1,0.3,4,1.1,5.7,2.3
	l0.9-0.9C25,4.2,25.5,4,26,4s1,0.2,1.4,0.6C27.8,5,28,5.5,28,6s-0.2,1-0.6,1.4l-0.9,0.9c1.2,1.6,2,3.6,2.3,5.7H30c1.1,0,2,0.9,2,2
	C32,17.1,31.1,18,30,18z M16,6C10.5,6,6,10.5,6,16s4.5,10,10,10s10-4.5,10-10S21.5,6,16,6z M16,22c-3.3,0-6-2.7-6-6c0-3.3,2.7-6,6-6
	s6,2.7,6,6C22,19.3,19.3,22,16,22z M16,13c-1.7,0-3,1.3-3,3s1.3,3,3,3s3-1.3,3-3S17.7,13,16,13z"/>
<path fill-rule="evenodd" clip-rule="evenodd" fill="none" d="M16,31c-0.6,0-1-0.4-1-1v-2l-0.8-0.1c-1.9-0.3-3.7-1-5.2-2.2l-0.7-0.5
	l-1.5,1.5C6.5,26.9,6.3,27,6,27s-0.5-0.1-0.7-0.3C5.1,26.5,5,26.3,5,26c0-0.3,0.1-0.5,0.3-0.7l1.5-1.5l-0.5-0.7
	c-1.1-1.5-1.9-3.3-2.2-5.2L4,17H2c-0.6,0-1-0.4-1-1s0.4-1,1-1h2l0.1-0.8c0.3-1.9,1-3.7,2.2-5.2l0.5-0.7L5.3,6.7C5.1,6.5,5,6.3,5,6
	s0.1-0.5,0.3-0.7C5.5,5.1,5.7,5,6,5c0.3,0,0.5,0.1,0.7,0.3l1.5,1.5l0.7-0.5c1.5-1.1,3.3-1.9,5.2-2.2L15,4V2c0-0.6,0.4-1,1-1
	s1,0.4,1,1v2l0.8,0.1c1.9,0.3,3.7,1,5.2,2.2l0.7,0.5l1.5-1.5C25.5,5.1,25.7,5,26,5s0.5,0.1,0.7,0.3C26.9,5.5,27,5.7,27,6
	s-0.1,0.5-0.3,0.7l-1.5,1.5l0.5,0.7c1.1,1.5,1.9,3.3,2.2,5.2L28,15h2c0.6,0,1,0.4,1,1s-0.4,1-1,1h-2l-0.1,0.8
	c-0.3,1.9-1,3.7-2.2,5.2l-0.5,0.7l1.5,1.5c0.2,0.2,0.3,0.4,0.3,0.7s-0.1,0.5-0.3,0.7C26.5,26.9,26.3,27,26,27
	c-0.3,0-0.5-0.1-0.7-0.3l-1.5-1.5l-0.7,0.5c-1.5,1.1-3.3,1.9-5.2,2.2L17,28v2C17,30.6,16.6,31,16,31z M16,21c-2.8,0-5-2.2-5-5
	s2.2-5,5-5s5,2.2,5,5S18.8,21,16,21z"/>
</svg>
