<?xml version="1.0" encoding="utf-8"?>
<!-- Generator: Adobe Illustrator 18.1.0, SVG Export Plug-In . SVG Version: 6.00 Build 0)  -->
<svg version="1.1" id="Layer_1" xmlns="http://www.w3.org/2000/svg" xmlns:xlink="http://www.w3.org/1999/xlink" x="0px" y="0px"
	 viewBox="0 0 120 138" enable-background="new 0 0 120 138" xml:space="preserve">
<path fill="#333333" d="M115.7,85.6l-9.3,9.2l-7.7-7.6c12-13.1,15.1-31.2,9.5-47l0,0v0c-2.3-6.5-5.9-12.5-11.1-17.7
	c-9-8.9-21-13.8-33.8-13.8c-0.9,0-1.8,0.2-2.7,0.3c-0.3,0-0.5,0-0.8,0.1C49.3,9.8,39.4,14,31.5,21l-7.7-7.6l9.3-9.2c1-1,1-2.5,0-3.5
	c-1-1-2.6-1-3.6,0L18.5,11.7c-24.7,24.4-24.7,64.1,0,88.4c11.9,11.7,27.3,17.7,42.9,18.2c-0.9,4.7-4.2,14.8-15.1,14.8h-3.1
	c-1.4,0-2.5,1.1-2.5,2.5c0,1.4,1.1,2.5,2.5,2.5h40.4c1.4,0,2.5-1.1,2.5-2.5c0-1.4-1.1-2.5-2.5-2.5H59.2c4.5-4.2,6.6-10.3,7.3-14.9
	c15.2-0.7,30.1-6.7,41.7-18.1l11.1-11c1-1,1-2.5,0-3.5C118.3,84.7,116.7,84.7,115.7,85.6z M93.5,85.7c-8.1,8-18.8,12.4-30.2,12.4
	c-11.4,0-22.1-4.4-30.2-12.4c-5-5-8.4-11-10.4-17.3l4.4-1.3l5.8,4.2c0.4,0.3,1,0.5,1.5,0.5c0.7,0,1.4-0.3,1.9-0.9l8.6-10
	c0.7-0.7,0.8-1.8,0.4-2.7c-0.4-0.9-1.3-1.5-2.3-1.5H37l-3.2-2.2l-0.2-4.1l4.1-2.8c0.7-0.5,1.1-1.2,1.1-2V30.9c0-1.4-1.1-2.5-2.5-2.5
	h-5.1c0.7-0.8,1.2-1.6,2-2.4c6.5-6.4,14.7-10.4,23.6-11.7l-2.9,6.1c-0.4,0.9-0.2,2,0.5,2.7l4.7,4.9c0.2,0.2,0.5,0.4,0.7,0.5l9.7,4.5
	c0.7,0.3,1.6,0.3,2.2,0c0,0,2.4-1.2,3.9-2.2c1.5,0,6.2,1,10.3,2.1l7.5,8.8c0.5,0.5,1.2,0.9,1.9,0.9h8.4
	C108.6,57.4,105.3,74.1,93.5,85.7z M27.3,33.4h6.5v10.9l-4.1,2.8c-0.7,0.5-1.1,1.3-1.1,2.1l0.3,6.7c0,0.8,0.4,1.5,1.1,1.9l4.9,3.3
	c0.4,0.3,0.9,0.4,1.4,0.4h1.4l-3.6,4.2l-5-3.5c-0.6-0.5-1.5-0.6-2.2-0.4l-5.5,1.7C19.4,53.4,21.4,42.5,27.3,33.4z M93.5,26.1
	c3.5,3.5,6.1,7.5,8.2,11.7h-5.3l-7.3-8.5c-0.3-0.4-0.7-0.6-1.2-0.8c-12.4-3.5-13.9-2.5-14.8-2c-0.7,0.5-1.9,1.1-2.7,1.6l-8.2-3.8
	L59.1,21l3.4-7.2c0.3,0,0.6-0.1,0.8-0.1C74.7,13.7,85.5,18.1,93.5,26.1z M20.5,17.1l7.5,7.4c-1.4,1.5-2.7,3-3.9,4.7
	c0,0-0.1,0.1-0.1,0.2c-12.7,18.3-10.9,43.6,5.6,59.9c9,8.9,21,13.8,33.8,13.8c11.9,0,23.1-4.4,31.8-12.2l7.5,7.4
	c-22.9,20.7-58.4,20.3-80.6-1.6C-0.1,74.8-0.5,39.7,20.5,17.1z"/>
<path fill="#333333" d="M98.9,44h-9.3c-1.4,0-2.5,1.1-2.5,2.5v9.4c0,0.8,0.4,1.5,1,2c0.4,0.3,1,0.5,1.5,0.5c0.2,0,0.5,0,0.7-0.1
	l9.3-2.7c1.1-0.3,1.8-1.3,1.8-2.4v-6.7C101.4,45.1,100.2,44,98.9,44z M96.3,51.4l-4.3,1.2V49h4.3V51.4z"/>
<path fill="#333333" d="M78.6,60c-0.6-0.8-1.6-1.1-2.5-0.9c-0.9,0.2-1.7,0.9-1.9,1.8c-0.4,1.6-0.9,3.4-1.4,4.9
	c-1.6-1.2-3.9-2.8-7.5-5.1L56,55.1c-0.6-0.4-1.5-0.5-2.2-0.2c-0.7,0.3-1.3,0.9-1.5,1.6l-2.1,7.3l-6.9,8.5c-0.3,0.4-0.5,1-0.5,1.6
	v8.5c0,1.1,0.8,2.1,1.9,2.4L57.4,88h19.2c0.5,0,1-0.2,1.4-0.4l7.9-5.1c0.7-0.5,1.1-1.2,1.1-2.1v-8.6c0-0.5-0.2-1.1-0.5-1.5L78.6,60z
	 M82,79l-6.2,4l-17.8,0.1l-10.3-2.6v-5.7l6.7-8.2c0.2-0.3,0.4-0.6,0.5-0.9l1.4-4.7l6.4,3.9c3.7,2.3,8.2,5.4,8.7,5.8
	c0.3,1,1.4,1.8,2.5,1.8c1.7,0,2.5-0.6,3.9-5.5l4.3,5.6V79z"/>
</svg>
