<svg viewBox="0 0 500 364" preserveAspectRatio="xMidYMid meet" style="border: 1px solid #333;">
<g id="data_access">
	<path fill="#69BE28" d="M11.6-124.1h435.8v111.1H11.6V-124.1z"/>
	<text transform="matrix(1 0 0 1 36.5099 -97.2521)" fill="#FFFFFF" font-family="'OpenSans'" font-size="14">Data Access</text>
</g>
<g id="hdfs">
	<path fill="#B3E28A" d="M11.6-1.1h435.8V110H11.6V-1.1z"/>
	<text transform="matrix(1 0 0 1 36.5099 96.0594)" fill="#69BE28" font-family="'MyriadPro-Regular'" font-size="14">HDFS (Data Management)</text>
</g>
<g id="security">
	<text transform="matrix(1 0 0 1 475.2062 -99.6387)" fill="#69BE28" font-family="'MyriadPro-Regular'" font-size="10.414">Security</text>
	<path fill="none" stroke="#69BE28" stroke-miterlimit="10" d="M461.3-123.3H555V110h-93.7L461.3-123.3L461.3-123.3z"/>
</g>
<g id="governance_integration">
	<text transform="matrix(1 0 0 1 -80.3211 -99.6387)" fill="#69BE28" font-family="'MyriadPro-Regular'" font-size="10.414">Governance</text>
	<text transform="matrix(1 0 0 1 -80.3211 -87.1417)" fill="#69BE28" font-family="'MyriadPro-Regular'" font-size="10.414">Integration</text>
	<path fill="none" stroke="#69BE28" stroke-miterlimit="10" d="M-94.2-123.3h93.7V110h-93.7V-123.3z"/>
</g>
<g id="operations">
	<text transform="matrix(1 0 0 1 580.9503 -99.6387)" fill="#69BE28" font-family="'MyriadPro-Regular'" font-size="10.414">Operations</text>
	<path fill="none" stroke="#69BE28" stroke-miterlimit="10" d="M567-123.3h93.7V110H567V-123.3z"/>
</g>
<g id="element_1">
	<circle fill="#FFFFFF" stroke="#69BE28" stroke-miterlimit="10" cx="67.9" cy="-17.8" r="26.1"/>
	<text transform="matrix(1 0 0 1 52.8432 -12.0547)" fill="#69BE28" font-family="'OpenSans-Semibold'" font-size="11">Batch</text>
</g>
<g id="element_2">
	<circle fill="#FFFFFF" stroke="#69BE28" stroke-miterlimit="10" cx="133.5" cy="-17.8" r="26.1"/>
	<text transform="matrix(1 0 0 1 118.5099 -13.0546)" fill="#69BE28" font-family="'OpenSans-Semibold'" font-size="11">Script</text>
</g>
<g id="element_3">
	<circle fill="#FFFFFF" stroke="#69BE28" stroke-miterlimit="10" cx="199.2" cy="-17.8" r="26.1"/>
	<text transform="matrix(1 0 0 1 188.8432 -12.5545)" fill="#69BE28" font-family="'OpenSans-Semibold'" font-size="11">SQL</text>
</g>
<g id="element_4">
	<circle fill="#FFFFFF" stroke="#69BE28" stroke-miterlimit="10" cx="264.9" cy="-17.8" r="26.1"/>
	<text transform="matrix(1 0 0 1 247.5099 -13.5544)" fill="#69BE28" font-family="'OpenSans-Semibold'" font-size="11">NoSQL</text>
</g>
<g id="element_5">
	<circle fill="#FFFFFF" stroke="#69BE28" stroke-miterlimit="10" cx="330.5" cy="-17.8" r="26.1"/>
	<text transform="matrix(1 0 0 1 310.756 -13.0546)" fill="#69BE28" font-family="'OpenSans-Semibold'" font-size="11">Stream</text>
</g>
<g id="element_6">
	<circle fill="#FFFFFF" stroke="#69BE28" stroke-miterlimit="10" cx="396.2" cy="-17.8" r="26.1"/>
	<text transform="matrix(1 0 0 1 380.756 -14.0546)" fill="#69BE28" font-family="'OpenSans-Semibold'" font-size="11">Other</text>
</g>
</svg>
