<svg xmlns="http://www.w3.org/2000/svg" viewBox="0 0 612 792" enable-background="new 0 0 612 792"><text transform="translate(442.499 320.591)" font-family="'MyriadPro-Regular'" font-size="6.55">Tools</text><path stroke="#000" stroke-miterlimit="10" d="M421.1 276h59v55.1h-59v-55.1z" fill="none"/><text transform="translate(442.499 381.299)" font-family="'MyriadPro-Regular'" font-size="6.55">Tools</text><path stroke="#000" stroke-miterlimit="10" d="M421.1 336.7h59v55.1h-59v-55.1zm-280.3-89.8h288.2v69.9h-288.2v-69.9z" fill="none"/><text transform="translate(158.295 308.057)" font-family="'MyriadPro-Regular'" font-size="6.55">Applications</text><text transform="translate(158.295 465.259)" font-family="'MyriadPro-Regular'" font-size="6.55">Sources</text><path stroke="#000" stroke-miterlimit="10" d="M140.8 404.1h288.2v69.9h-288.2v-69.9zm0-78.6h288.2v69.9h-288.2v-69.9z" fill="none"/><circle cx="175.7" cy="273.1" r="17.5"/><circle cx="219.7" cy="273.1" r="17.5"/><circle cx="263.7" cy="273.1" r="17.5"/><circle cx="307.7" cy="273.1" r="17.5"/><circle cx="351.7" cy="273.1" r="17.5"/><circle cx="395.7" cy="273.1" r="17.5"/><circle cx="175.7" cy="434.7" r="17.5"/><circle cx="219.7" cy="434.7" r="17.5"/><circle cx="263.7" cy="434.7" r="17.5"/><circle cx="307.7" cy="434.7" r="17.5"/><circle cx="351.7" cy="434.7" r="17.5"/><circle cx="395.7" cy="434.7" r="17.5"/></svg>