<?xml version="1.0" encoding="utf-8"?>
<!-- Generator: Adobe Illustrator 18.1.0, SVG Export Plug-In . SVG Version: 6.00 Build 0)  -->
<svg version="1.1" id="Layer_1" xmlns="http://www.w3.org/2000/svg" xmlns:xlink="http://www.w3.org/1999/xlink" x="0px" y="0px"
	 viewBox="0 0 612 792" enable-background="new 0 0 612 792" xml:space="preserve">
<g id="data_access">
	<g>
		<path fill="#69BE28" d="M29.3-2.8c0-1.7,1.4-3,3-3h331.2c1.6,0,3,1.3,3,3v80c0,1.7-1.4,3-3,3H32.3c-1.6,0-3-1.3-3-3V-2.8z"/>
	</g>
	<text transform="matrix(1 0 0 1 48.6147 14.9819)" fill="#FFFFFF" font-family="'OpenSans'" font-size="10.8319">Data Access</text>
</g>
<g id="hdfs">
	<g>
		<path fill="#B3E28A" d="M29.3,92.4c0-1.7,1.4-3,3-3h331.2c1.6,0,3,1.3,3,3v80c0,1.6-1.4,3-3,3H32.3c-1.6,0-3-1.4-3-3V92.4z"/>
	</g>
	<g>
		<rect x="29.3" y="89.4" fill="#4B859B" width="337.2" height="38.6"/>
	</g>
	<text transform="matrix(1 0 0 1 48.6147 197.5479)" fill="#999999" font-family="'OpenSans'" font-size="10.8319">Data Management</text>
	<text transform="matrix(1 0 0 1 48.6147 119.5479)" fill="#FFFFFF" font-family="'OpenSans'" font-size="10.8319">YARN: Data Operating System</text>
	<text transform="matrix(1 0 0 1 48.6147 166.0479)" fill="#69BE28" font-family="'OpenSans'" font-size="10.8319">HDFS: Distributed File System</text>
</g>
<g id="security">
	<g>
		<path fill="#FFFFFF" d="M377.3-2.2c0-1.7,1.4-3,3-3h66.5c1.6,0,3,1.3,3,3v174.5c0,1.6-1.4,3-3,3h-66.5c-1.6,0-3-1.4-3-3V-2.2z"/>
		<path fill="none" stroke="#CCCCCC" stroke-miterlimit="10" d="M377.3-2.2c0-1.7,1.4-3,3-3h66.5c1.6,0,3,1.3,3,3v174.5
			c0,1.6-1.4,3-3,3h-66.5c-1.6,0-3-1.4-3-3V-2.2z"/>
	</g>
	<text transform="matrix(1 0 0 1 388.0353 13.1352)" fill="#999999" font-family="'OpenSans'" font-size="8.0574">Security</text>
</g>
<g id="governance_integration">
	<g>
		<path fill="#FFFFFF" d="M-52.5-2.2c0-1.7,1.3-3,3-3H17c1.6,0,3,1.3,3,3v174.5c0,1.6-1.4,3-3,3h-66.5c-1.7,0-3-1.4-3-3V-2.2z"/>
		<path fill="none" stroke="#CCCCCC" stroke-miterlimit="10" d="M-52.5-2.2c0-1.7,1.3-3,3-3H17c1.6,0,3,1.3,3,3v174.5
			c0,1.6-1.4,3-3,3h-66.5c-1.7,0-3-1.4-3-3V-2.2z"/>
	</g>
	<text transform="matrix(1 0 0 1 -41.7783 13.1352)" fill="#999999" font-family="'MyriadPro-Regular'" font-size="8.0574">Governance</text>
	<text transform="matrix(1 0 0 1 -41.7783 22.8042)" fill="#999999" font-family="'MyriadPro-Regular'" font-size="8.0574">Integration</text>
</g>
<g id="operations">
	<g>
		<path fill="#FFFFFF" d="M459.1-5.2c0,0,1.4,0,3,0h66.5c1.7,0,3,1.3,3,3v174.5c0,1.6-1.3,3-3,3h-66.5c-1.6,0-3-1.4-3-3V-2.2
			C459.1-3.8,459.1-5.2,459.1-5.2z"/>
		<path fill="none" stroke="#CCCCCC" stroke-miterlimit="10" d="M459.1-5.2c0,0,1.4,0,3,0h66.5c1.7,0,3,1.3,3,3v174.5
			c0,1.6-1.3,3-3,3h-66.5c-1.6,0-3-1.4-3-3V-2.2C459.1-3.8,459.1-5.2,459.1-5.2z"/>
	</g>
	<text transform="matrix(1 0 0 1 469.8505 13.1352)" fill="#999999" font-family="'MyriadPro-Regular'" font-size="8.0574">Operations</text>
</g>
<g id="element_1">
	<circle fill="#FFFFFF" stroke="#4B859B" stroke-width="2" stroke-miterlimit="10" cx="72.9" cy="76.5" r="20.2"/>
	<text transform="matrix(1 0 0 1 63.252 80.8995)" fill="#4B859B" font-family="'OpenSans-Semibold'" font-size="7">Batch</text>
</g>
<g id="element_2">
	<circle fill="#FFFFFF" stroke="#4B859B" stroke-width="2" stroke-miterlimit="10" cx="123.7" cy="75.5" r="20.2"/>
	<text transform="matrix(1 0 0 1 113.0582 79.1259)" fill="#4B859B" font-family="'OpenSans-Semibold'" font-size="7">Script</text>
</g>
<g id="element_3">
	<g>
		<path fill="#FFFFFF" d="M174.5,97.7c-11.7,0-21.2-9.5-21.2-21.2s9.5-21.2,21.2-21.2s21.2,9.5,21.2,21.2S186.2,97.7,174.5,97.7z"/>
		<path fill="#4B859B" d="M174.5,56.3c11.2,0,20.2,9,20.2,20.2s-9,20.2-20.2,20.2s-20.2-9-20.2-20.2S163.3,56.3,174.5,56.3
			 M174.5,54.3c-12.2,0-22.2,10-22.2,22.2s10,22.2,22.2,22.2s22.2-10,22.2-22.2S186.7,54.3,174.5,54.3L174.5,54.3z"/>
	</g>
	<text transform="matrix(1 0 0 1 167.4756 80.5127)" fill="#4B859B" font-family="'OpenSans-Semibold'" font-size="7">SQL</text>
</g>
<g id="element_4">
	<circle fill="#FFFFFF" stroke="#4B859B" stroke-width="2" stroke-miterlimit="10" cx="225.3" cy="76.5" r="20.2"/>
	<text transform="matrix(1 0 0 1 213.8661 79.7393)" fill="#4B859B" font-family="'OpenSans-Semibold'" font-size="7">NoSQL</text>
</g>
<g id="element_5">
	<circle fill="#FFFFFF" stroke="#4B859B" stroke-width="2" stroke-miterlimit="10" cx="276.1" cy="76.5" r="20.2"/>
	<text transform="matrix(1 0 0 1 263.7998 80.1259)" fill="#4B859B" font-family="'OpenSans-Semibold'" font-size="7">Stream</text>
</g>
<g id="element_6">
	<circle fill="#FFFFFF" stroke="#4B859B" stroke-width="2" stroke-miterlimit="10" cx="326.9" cy="76.5" r="20.2"/>
	<text transform="matrix(1 0 0 1 316.959 79.352)" fill="#4B859B" font-family="'OpenSans-Semibold'" font-size="7">Other</text>
</g>
</svg>
